<svg xmlns="http://www.w3.org/2000/svg"><defs><font horiz-adv-x="921"><font-face units-per-em="2048" ascent="1638" descent="-410"/><glyph horiz-adv-x="0"/><glyph horiz-adv-x="681"/><glyph horiz-adv-x="450"/><glyph horiz-adv-x="450"/><glyph horiz-adv-x="450"/><glyph unicode="!" horiz-adv-x="466" d="M164 49q0 29 18.5 48.5t51 19.5 51-19.5 18.5-48.5-18.5-49-51-20-51 20-18.5 49zm4 1170q0 20 18.5 33.5t47 13.5 47-13.5 18.5-33.5l-18-975q0-18-13.5-30.5t-34-12.5-34 12-13.5 31z"/><glyph unicode=""" horiz-adv-x="512" d="M104 1509q-2 23 13.5 35t39 12 39-12 13.5-35l-16-168q-4-39-36-38.5t-36 38.5zm199 0q-2 23 13.5 35t39 12 39-12 13.5-35l-17-168q-4-39-35.5-38.5t-36.5 38.5z"/><glyph unicode="#" horiz-adv-x="1052" d="M68 473.5q0 20.5 13 34.5t34 14h137l47 203h-115q-20 0-33.5 13.5t-13.5 34 13.5 34.5 33.5 14h135l95 410q6 35 38.5 35t53-16.5 14.5-43.5l-88-385h275l94 410q6 35 38.5 35t53-16.5 14.5-43.5l-88-385h119q20 0 33.5-14t13.5-34.5-13.5-34-33.5-13.5h-141l-45-203h116q20 0 33.5-14t13.5-34.5-13-34-34-13.5h-139l-92-412q-6-35-41-34.5t-53.5 17.5-12.5 42l88 387h-276l-92-412q-6-35-41-34.5t-53.5 17.5-12.5 42l88 387h-116q-20 0-33.5 13.5t-13.5 34zm297 48.5h274l47 203h-276z"/><glyph unicode="$" horiz-adv-x="1132" d="M74 115v168q0 20 16 33.5t39 13.5 39-13.5 16-33.5v-142q123-61 338-65v536q-215 43-319.5 115t-104.5 217q0 305 424 320v225q0 20 16.5 33.5t39 13.5 39-13.5 16.5-33.5v-225q217-10 362-90 31-18 31-44v-167q0-20-16.5-34t-39-14-39 13.5-16.5 34.5v141q-109 49-282 63v-467q319-68 399-219 35-66 35-153 0-145-112.5-237.5t-321.5-106.5v-273q0-20-16.5-33.5t-39-13.5-39 13.5-16.5 33.5v269q-113 4-235 28-213 45-213 107zm135 829q0-94 80-141t233-80v444q-313-14-313-223zm424-864q153 14 238 78.5t85 172-80.5 164-242.5 93.5v-508z"/><glyph unicode="%" horiz-adv-x="1208" d="M78 976q0 134 72.5 212t198.5 78 196.5-82 70.5-210-71.5-209-196.5-81-197.5 79-72.5 213zm69-939.5q0 16.5 11 31.5l807 1163q14 25 32.5 24.5t43-14.5 24.5-31.5-10-29.5l-807-1164q-14-25-32.5-24.5t-43.5 14.5-25 30.5zm41 938.5q0-92 42-144.5t117-52.5 118 53.5 43 143.5-43 143-118 53-117-52-42-144zm406-703.5q0 134.5 72.5 212t198.5 77.5 197-82 71-210-72-208.5-197-80.5-197.5 78.5-72.5 213zm111-1.5q0-92 41.5-144t116.5-52 118 53 43 143-43 143.5-118 53.5-116.5-52.5-41.5-144.5z"/><glyph unicode="&" horiz-adv-x="1103" d="M98 293q0 203 244 389-102 168-102 305t71.5 208 189 71 179-70 61.5-182q0-162-262-346 145-203 328-392 82 104 123 228 8 23 27.5 33t39.5 2q37-12 37-45 0-8-2-19-37-129-155-272l145-144q12-14 12-34.5t-17.5-32.5-35.5-12-39 18l-137 133q-166-152-340-151.5t-270.5 82-96.5 231.5zm111-10.5q0-96.5 66.5-152.5t198.5-56 267 127q-188 188-346 405-80-59-133-143t-53-180.5zm141 721.5q0-123 78-261 82 59 143.5 134t61.5 141q0 153-127 153-68 0-106-36.5t-44-67.5-6-63z"/><glyph unicode="'" horiz-adv-x="313" d="M104 1509q-2 23 13.5 35t39 12 39-12 13.5-35l-16-168q-4-39-36-38.5t-36 38.5z"/><glyph unicode="(" horiz-adv-x="514" d="M92 500q0 248 78 465t219 307q14 10 31.5 10t30-19.5 12.5-37-23-33.5q-104-78-170.5-276.5t-66.5-415.5 66.5-416 170.5-277q23-16 23-33.5t-12.5-37-30-19.5-31.5 11q-141 90-219 307t-78 465z"/><glyph unicode=")" horiz-adv-x="514" d="M51-226.5q0 17.5 23 33.5 104 78 170.5 277t66.5 416-66.5 415.5-170.5 276.5q-23 16-23 33.5t12.5 37 30 19.5 31.5-10q141-90 219-307t78-465-78-465-219-307q-14-10-31.5-10.5t-30 19-12.5 37z"/><glyph unicode="*" horiz-adv-x="823" d="M86 1340.5q0 17.5 10 34t28.5 21.5 35.5-5l205-117v235q0 20 14 33.5t34.5 13.5 34-13 13.5-34v-235l203 117q14 6 31.5 6t28.5-18.5 11-28.5q0-29-22-43l-203-115 201-113q27-16 26.5-32.5t-10.5-30.5q-14-29-31.5-29t-31.5 8l-203 115v-233q0-20-13.5-34t-34-14-34.5 13.5-14 34.5v231l-203-115q-14-8-32.5-8t-29 21.5-10.5 38 25 32.5l200 115-202 117q-27 14-27 31.5z"/><glyph unicode="+" horiz-adv-x="743" d="M86 448.5q0 20.5 13.5 35t33.5 14.5h189v190q0 20 14 33.5t34.5 13.5 34-13.5 13.5-33.5v-190h192q20 0 33.5-14.5t13.5-35-13-34-34-13.5h-192v-190q0-20-13.5-33.5t-34-13.5-34.5 13-14 34v190h-189q-20 0-33.5 13.5t-13.5 34z"/><glyph unicode="," horiz-adv-x="405" d="M115-127q0 12 14 25 39 31 51 86-51 12-51 69 0 31 19.5 52.5t54.5 21.5 55.5-21.5 20.5-52.5q0-76-49.5-137t-92.5-61q-23 0-22 18z"/><glyph unicode="-" horiz-adv-x="817" d="M123 448.5q0 20.5 13.5 35t33.5 14.5h477q20 0 33.5-14.5t13.5-35-13.5-34-33.5-13.5h-477q-20 0-33.5 13.5t-13.5 34z"/><glyph unicode="." horiz-adv-x="395" d="M123 53.5q0 30.5 19.5 52t54 21.5 55-21.5 20.5-52-20.5-52-55-21.5-54 21.5-19.5 52z"/><glyph unicode="/" horiz-adv-x="1015" d="M49 36.5q0 16.5 10 31.5l807 1163q14 25 33 24.5t43.5-14.5 24.5-31.5-11-29.5l-806-1164q-14-25-33-24.5t-43.5 14.5-24.5 30.5z"/><glyph unicode="0" d="M98 385q0 180 95.5 290.5t266.5 110.5 266-110.5 95-291.5-95-292.5-266-111.5-266.5 112.5-95.5 292.5zm109-1q0-140 65.5-225t186.5-85 186.5 85 65.5 225-65.5 224-186.5 84-186.5-84-65.5-224z"/><glyph unicode="1" horiz-adv-x="618" d="M94 47.5q0 20.5 13.5 34.5t33.5 14h135v518q-76-72-124-71-20 0-34 12t-14 39 29 39q90 39 152 127 20 26 49 26 53 0 53-43v-647h135q20 0 33.5-14t13.5-34.5-13-34-34-13.5h-381q-20 0-33.5 13.5t-13.5 34z"/><glyph unicode="2" horiz-adv-x="917" d="M98 51q0 51 20.5 99.5t48.5 81 81 67.5q82 51 203.5 105.5t172 90 50.5 83.5q0 115-225 114-129 0-209-33v-133q0-20-16.5-33.5t-39-13.5-39 13.5-16.5 33.5v162q0 27 35 43 115 55 285 55 334 0 333-208 0-96-90-156-66-45-164-88t-128.5-58.5-80.5-46.5q-88-51-108-135h487v121q0 20 16.5 33.5t39 13.5 39-13 16.5-34v-170q0-45-49-45h-613q-49 0-49 51z"/><glyph unicode="3" horiz-adv-x="966" d="M90-168q0 20 16.5 33.5t39 13.5 39-13 16.5-34v-141q115-66 270-66 301 0 301 247t-375 288q-47 6-47 46t47 46q348 43 348 240 0 201-268 200-152 0-252-55v-137q0-20-16-33.5t-39-13.5-39 13-16 34v162q0 27 39 49 127 76 323 75 377 0 377-294 0-209-233-283 260-84 260-338 0-162-103.5-251t-306.5-89q-98 0-196.5 26.5t-157.5 69.5q-27 16-27 39v166z"/><glyph unicode="4" horiz-adv-x="878" d="M27 48q0 11 8 24l391 686q16 29 34.5 28.5t37-8.5 29-26.5-.5-36.5l-356-621h387v131q0 20 16.5 33.5t39 13.5 39-13 16.5-34v-129h137q20 0 33.5-14t13.5-34.5-13.5-34-33.5-13.5h-137v-422q0-20-16.5-33.5t-39-13.5-39 13.5-16.5 33.5v422h-479q-35 0-45 25-6 12-6 23z"/><glyph unicode="5" horiz-adv-x="958" d="M96-127q0 20 16.5 33.5t39 13.5 39-13.5 16.5-33.5v-172q119-76 264-76t223 93.5 78 213.5q0 332-311 332-90 0-181.5-20.5t-103.5-20.5q-41 0-41 31v469q0 43 47 43h600q20 0 33.5-14.5t13.5-35-13-33.5-34-13h-538v-342q102 31 213 30 207 0 315.5-108.5t108.5-299-114-305-307.5-114.5-336.5 109q-27 23-27 45v188z"/><glyph unicode="6" horiz-adv-x="946" d="M96 528q0 471 143.5 725t438.5 303q8 3 14 3 45 0 45-54 0-35-35-41-231-37-358-250t-135-577q129 150 308 149.5t275.5-114 96.5-288.5-111.5-289.5-288.5-114.5q-150 0-262 104-131 123-131 444zm111-14q2-213 73.5-326.5t203.5-113.5 213 86 81 223-73.5 223-183 86-189.5-57-125-121z"/><glyph unicode="7" horiz-adv-x="847" d="M45 555v166q0 45 47 45h672q47 0 47-47 0-168-61-287-35-68-55.5-99.5t-95.5-136-132-254-57-364.5q0-20-16.5-33.5t-39-13.5-39 13.5-16.5 33.5q0 201 56.5 366t176.5 337q55 78 79 115.5t52.5 114.5 34.5 161h-542v-117q0-20-16.5-33.5t-39-13.5-39 13.5-16.5 33.5z"/><glyph unicode="8" horiz-adv-x="1056" d="M90 362.5q0 169.5 87 266t241 174.5q-143 76-214 168t-71 240.5 106.5 246.5 289 98 289-99 106.5-245.5-70-235.5-217-165q154-78 242-177t88-265-122-277.5-319.5-111.5-316.5 106.5-119 276zm111 11.5q0-134 86-217t237.5-83 241.5 85 90 220q0 139-115 235-86 74-219 140-153-78-237-162t-84-218zm41 822q0-117 73.5-192.5t214.5-145.5q141 68 212 143.5t71 195.5-77 192.5-210 72.5q-90 0-151.5-29.5t-87.5-76.5q-45-80-45-160z"/><glyph unicode="9" horiz-adv-x="931" d="M61 409q0 171 111 274t287 103q274 0 352-229 41-123 41-289t-55.5-310-186.5-266-313-155q-27-6-47-6-59 0-59.5 43t40.5 49q197 29 328 173t176 345q-119-119-296-118.5t-277.5 108-100.5 278.5zm109-5.5q0-133.5 73.5-210t183.5-76.5 189.5 44 126.5 99q0 315-137 395-59 37-147 37-129 0-209-77.5t-80-211z"/><glyph unicode=":" horiz-adv-x="395" d="M123 53.5q0 30.5 19.5 52t54 21.5 55-21.5 20.5-52-20.5-52-55-21.5-54 21.5-19.5 52zm0 659q0 30.5 19.5 52t54 21.5 55-21.5 20.5-52-20.5-52-55-21.5-54 21.5-19.5 52z"/><glyph unicode=";" horiz-adv-x="417" d="M123-127q0 12 14 25 39 31 51 86-51 12-51 69 0 31 19.5 52.5t54.5 21.5 55.5-21.5 20.5-52.5q0-76-49.5-137t-92.5-61q-23 0-22 18zm14 839.5q0 30.5 19.5 52t54.5 21.5 55.5-21.5 20.5-52-20.5-52-55.5-21.5-54.5 21.5-19.5 52z"/><glyph unicode="<" horiz-adv-x="884" d="M65.5 480q.5 26 24.5 42l596 379q12 6 28.5 6t32-23.5 15.5-41-19-27.5l-538-334 538-334q18-10 18.5-27.5t-15-41-32-23.5-28.5 6l-596 377q-25 16-24.5 42z"/><glyph unicode="=" horiz-adv-x="872" d="M131 333.5q0 20.5 13.5 35t33.5 14.5h516q20 0 33.5-14.5t13.5-35-13.5-33.5-33.5-13h-516q-20 0-33.5 13t-13.5 33.5zm0 230q0 20.5 13.5 34.5t33.5 14h516q20 0 33.5-14t13.5-34.5-13.5-34-33.5-13.5h-516q-20 0-33.5 13.5t-13.5 34z"/><glyph unicode=">" horiz-adv-x="884" d="M121 119.5q0 17.5 18 27.5l539 334-539 334q-18 10-18 27.5t15.5 41 31.5 23.5 29-6l596-379q25-16 24.5-41.5t-24.5-42.5l-596-377q-12-6-28.5-6t-32 23.5-15.5 41z"/><glyph unicode="?" horiz-adv-x="966" d="M70 969v166q0 39 49 61 143 70 354 70 430 0 430-285 0-137-76-219-59-63-137-112.5t-104.5-69-61.5-56.5q-70-74-69-196 0-20-16.5-33.5t-39-13.5-39 13.5-16.5 33.5q0 180 115 282 49 41 126 90.5t111.5 77 65.5 81.5 31 122q0 190-320 190-178 0-295-53v-149q0-20-16.5-33.5t-39-13.5-37.5 13-15 34zm258-917.5q0 28.5 19.5 50t52 21.5 53-21.5 20.5-50-20.5-50-53-21.5-52 21.5-19.5 50z"/><glyph unicode="@" horiz-adv-x="1794" d="M86 397q0 379 226.5 624t598 245 595-246 223.5-621q0-190-103.5-326t-269.5-136q-211 0-211 194-43-61-125-106t-166-45q-180 0-266 112.5t-86 290.5 98 290.5 260 112.5 281-108v61q0 20 16.5 33.5t39 13.5 38.5-13 16-34v-606q0-45 27-73.5t78-28.5q115 0 188.5 105.5t73.5 262.5q0 344-199.5 558t-514 214-511-214-196.5-559 196.5-558 509.5-213q242 0 430 133 14 10 30.5 10.5t32-19 16.5-39-13-29.5q-211-150-496-150-371 0-594 242.5t-223 621.5zm524-17q0-142 61.5-224t184.5-82q80 0 157 49t128 141v305q-128 123-275 123-117 0-186.5-85t-69.5-227z"/><glyph unicode="A" horiz-adv-x="1273" d="M10 29q0 8 4 18l545 1102h-88q-20 0-33.5 13.5t-13.5 34 13.5 34.5 33.5 14h182q33 0 45-24l580-1172q4-8 4-18 0-35-33-47-12-4-22-4-35 0-47 26l-191 385h-686l-190-385q-12-28-40-28-13 0-30 6-33 12-33 45zm338 456h596l-299 615z"/><glyph unicode="B" horiz-adv-x="1253" d="M51 1196.5q0 20.5 13.5 34.5t33.5 14h570q215 0 318.5-76.5t103.5-252-142-248.5q213-76 213-316 0-352-454-352h-443q-25 0-41 13.5t-16 33.5v1102h-109q-20 0-33.5 13.5t-13.5 34zm266-1100.5h390q174 0 258 61.5t84 194.5q0 256-310 256h-422v-512zm0 609h398q121 0 192.5 57t71.5 168.5-76 165-235 53.5h-351v-444z"/><glyph unicode="C" horiz-adv-x="1249" d="M96 620.5q0 286.5 168 466t423 179.5 425-99q31-16 31-43v-176q0-20-16.5-33.5t-39-13.5-39 13.5-16.5 33.5v152q-150 69-329 69h-5q-219 0-355-152.5t-136-394 136-394 371-152.5 376 172q14 20 32.5 20t40-17.5 21.5-33.5-13-31q-171-206-470-206h-3q-266 0-434 177t-168 463.5z"/><glyph unicode="D" horiz-adv-x="1345" d="M39 1196.5q0 20.5 13.5 34.5t33.5 14h547q279 0 447.5-169t168.5-455.5-165.5-453.5-450.5-167h-371q-53 0-53 47v1102h-123q-20 0-33.5 13.5t-13.5 34zm280-1100.5h314q238 0 372 138.5t134 385-137.5 388-368.5 141.5h-314v-1053z"/><glyph unicode="E" horiz-adv-x="1187" d="M41 1196.5q0 20.5 13.5 34.5t33.5 14h961q53 0 53-49v-168q0-20-16.5-33.5t-39-13.5-39 13.5-16.5 33.5v121h-672v-475h578v76q0 20 15.5 33.5t38 13.5 38-13.5 15.5-33.5v-250q0-20-15.5-33.5t-38-13.5-38 13-15.5 34v78h-578v-482h728q25 0 40-13t15-33.5-16.5-35-38.5-14.5h-787q-51 0-51 45v1104h-121q-20 0-33.5 13.5t-13.5 34z"/><glyph unicode="F" horiz-adv-x="1101" d="M41 1196.5q0 20.5 13.5 34.5t33.5 14h905q53 0 54-49v-168q0-20-16.5-33.5t-39-13.5-39 13.5-16.5 33.5v121h-617v-475h519v76q0 20 15 33.5t37.5 13.5 38-13.5 15.5-33.5v-250q0-20-15.5-33.5t-38-13.5-37.5 13-15 34v78h-519v-551q0-20-16-33.5t-38.5-13.5-39 13-16.5 34v1122h-121q-20 0-33.5 13.5t-13.5 34z"/><glyph unicode="G" horiz-adv-x="1288" d="M94 631.5q0 281.5 171 458t419 176.5 426-101q33-16 33-43v-176q0-20-16.5-33.5t-39-13.5-39 13.5-16.5 33.5v150q-152 73-329 73h-5q-221 0-357-150.5t-136-392 137-396 348-154.5 367 133v307h-307q-20 0-34 13.5t-14 34 13.5 34.5 34.5 14h364q53 0 53-47v-538q0-20-16-33.5t-38.5-13.5-39 13.5-16.5 33.5v82q-158-129-365-129-266 0-432 185t-166 466.5z"/><glyph unicode="H" horiz-adv-x="1390" d="M43 1196.5q0 20.5 13.5 34.5t33.5 14h176q20 0 36.5-14t16.5-35v-522h752v475h-121q-20 0-33.5 13.5t-13.5 34 13.5 34.5 33.5 14h178q20 0 37-14t17-35v-1069q0-31 47-31h76q20 0 33.5-14t13.5-34.5-13.5-34-33.5-13.5h-76q-90 0-124 39t-34 88v451h-752v-551q0-20-16-33.5t-38.5-13.5-39 13-16.5 34v1122h-119q-20 0-33.5 13.5t-13.5 34z"/><glyph unicode="I" horiz-adv-x="569" d="M61 49.5q0 20.5 13.5 33.5t34.5 13h120v1053h-120q-20 0-34 13.5t-14 34 13.5 34.5 34.5 14h352q20 0 33.5-14t13.5-34.5-13.5-34-33.5-13.5h-121v-1053h121q20 0 33.5-13t13.5-33.5-13.5-35-33.5-14.5h-352q-20 0-34 14.5t-14 35z"/><glyph unicode="J" horiz-adv-x="528" d="M-6-358q0 29 39 41 102 31 139 111.5t37 221.5v1133h-121q-20 0-33.5 13.5t-13.5 34 13.5 34.5 33.5 14h352q20 0 33.5-14t13.5-34.5-13-34-34-13.5h-121v-1139q0-178-52-268t-175-141q-26-11-51-11-47 0-47 52z"/><glyph unicode="K" horiz-adv-x="1196" d="M41 1196.5q0 20.5 13.5 34.5t33.5 14h178q53 0 53-49v-733l584 686h-51q-20 0-33.5 13.5t-13.5 34 13 34.5 34 14h295q20 0 33.5-14t13.5-34.5-13.5-34-33.5-13.5h-107l-399-467 489-623q12-14 12.5-30.5t-23-34-42-17.5-33.5 19l-475 604-250-291v-282q0-20-16-33.5t-38.5-13.5-39 13-16.5 34v1122h-121q-20 0-33.5 13.5t-13.5 34z"/><glyph unicode="L" horiz-adv-x="1112" d="M41 1196.5q0 20.5 13.5 34.5t33.5 14h352q20 0 33.5-14t13.5-34.5-13-34-34-13.5h-121v-1053h658v121q0 20 16.5 33.5t39 13.5 38.5-13.5 16-33.5v-170q0-47-47-47h-774q-35 0-46 12.5t-11 36.5v1100h-121q-20 0-33.5 13.5t-13.5 34z"/><glyph unicode="M" horiz-adv-x="1667" d="M39 1196.5q0 20.5 13.5 34.5t33.5 14h170q33 0 53-24l514-703 512 701q18 27 51 26h175q20 0 33.5-14t13.5-34.5-13.5-34-33.5-13.5h-123v-1022q0-31 47-31h76q20 0 33.5-14t13.5-34.5-13.5-34-33.5-13.5h-76q-158 0-158 127v903l-459-627q-16-23-44.5-22.5t-45.5 22.5l-459 627v-1003q0-20-16-33.5t-38.5-13.5-39 13.5-16.5 33.5v1122h-123q-20 0-33.5 13.5t-13.5 34z"/><glyph unicode="N" horiz-adv-x="1429" d="M41 1198.5q0 20.5 15.5 33.5t39.5 13h160q33 0 51-20l803-1032v956h-121q-20 0-33.5 13.5t-13.5 34 13.5 34.5 33.5 14h352q20 0 34-14t14-34.5-13.5-34-34.5-13.5h-120v-1116q0-53-54-53-29 0-49 28l-799 1028v-1009q0-20-16-33.5t-38.5-13.5-39 13-16.5 34v1122h-113q-23 0-39 14.5t-16 35z"/><glyph unicode="O" horiz-adv-x="1425" d="M94 622.5q0 278.5 173 461t445.5 182.5 445.5-182.5 173-462-173-460.5-445.5-181-445.5 182-173 460.5zm111 0q0-237.5 141-392t366.5-154.5 367 154.5 141.5 392-141.5 392-367 154.5-366.5-154.5-141-392z"/><glyph unicode="P" horiz-adv-x="1234" d="M41 1196.5q0 20.5 13.5 34.5t33.5 14h643q446 0 447-403 0-402-447-402h-412v-413q0-20-16-33.5t-38.5-13.5-39 13.5-16.5 33.5v1122h-121q-20 0-33.5 13.5t-13.5 34zm278-661.5h412q336 0 336 307t-336 307h-412v-614z"/><glyph unicode="Q" horiz-adv-x="1427" d="M94 621.5q0 279.5 173 462t445.5 182.5 445.5-182.5 173-460.5q0-172-69.5-313.5t-192.5-225.5l203-221q10-12 10-28.5t-21.5-34-39-17.5-33.5 18l-213 232q-123-53-262-53-272 0-445.5 181t-173.5 460.5zm111 1q0-237.5 141-392t367-154.5q115 0 194 33l-233 270q-10 12-10 28.5t21.5 34 38.5 17.5 34-19l246-278q98 70 157.5 192.5t59.5 268.5q0 238-141.5 392t-367 154-366.5-154.5-141-392z"/><glyph unicode="R" horiz-adv-x="1298" d="M39 1196.5q0 20.5 13.5 34.5t33.5 14h643q449 0 449-383 0-276-244-356l264-457q4-8 4-18 0-29-23.5-41.5t-42-12.5-32.5 23l-281 481q-53-4-94-4h-410v-450q0-20-16-33.5t-38.5-13.5-39 13-16.5 34v1122h-123q-20 0-33.5 13.5t-13.5 34zm280-625.5h410q338 0 338 291 0 154-85 220.5t-253 66.5h-410v-578z"/><glyph unicode="S" horiz-adv-x="1183" d="M98 115v168q0 20 16.5 33.5t39 13.5 39-13.5 16.5-33.5v-142q136-66 345-66 2 1 3 1 211 0 317.5 66.5t106.5 188.5-100.5 181-319.5 101-328.5 112-109.5 219q0 322 477 322 254 0 420-92 31-18 31-44v-167q0-20-16.5-34t-39-14-39 13.5-16.5 34.5v141q-140 66-332 66h-2q-194 0-283.5-55.5t-89.5-170.5q0-109 115-162 78-39 210-66.5t187.5-42 129-44 114.5-66.5 72-97 31-138q0-160-134.5-254t-384.5-94q-115 0-247.5 25.5t-200.5 68.5q-27 16-27 41z"/><glyph unicode="T" horiz-adv-x="1200" d="M29 1028v168q0 20 16 34.5t37 14.5h1034q23 0 39-14t16-35v-168q0-20-16-33.5t-38.5-13.5-39 13.5-16.5 33.5v121h-406v-1122q0-20-16-33.5t-38.5-13.5-39 13.5-16.5 33.5v1122h-406v-121q0-20-16.5-33.5t-39-13.5-38.5 13.5-16 33.5z"/><glyph unicode="U" horiz-adv-x="1323" d="M20 1196.5q0 20.5 13.5 34.5t34.5 14h178q20 0 36.5-14t16.5-35v-807q0-139 104.5-226t270.5-87 271.5 87 105.5 226v760h-121q-20 0-33.5 13.5t-13.5 34 13.5 34.5 33.5 14h178q53 0 53-49v-807q0-188-142-298.5t-351-110.5-344.5 114.5-135.5 294.5v760h-120q-20 0-34 13.5t-14 34z"/><glyph unicode="V" horiz-adv-x="1216" d="M0 1217q0 33 33 45 12 4 22 4 35 0 47-27l506-1085 504 1085q12 27 35 27 49 0 63-33 4-8 4-18.5t-4-18.5l-551-1176q-16-31-51-30.5t-49 28.5l-555 1180q-4 10-4 19z"/><glyph unicode="W" horiz-adv-x="1695" d="M4 1219q0 33 35 43 12 4 22 4 35 0 48-29l456-1083 226 555-209 491q-9 19 .5 37t26 23.5 26.5 5.5q35 0 47-29l166-399 168 401q12 27 34.5 27t39-6.5 24.5-26 0-37.5l-207-487 228-557 452 1087q12 27 35 27 49 0 64-33 4-8 4-18.5t-4-18.5l-498-1182q-12-35-52-35l-1 1q-41 0-54 34l-233 557-234-557q-12-35-51-35l-1 1q-40 0-52 34l-502 1186q-4 8-4 19z"/><glyph unicode="X" horiz-adv-x="1236" d="M29 28.5q0 16.5 12 30.5l508 574-492 553q-12 14-12 30.5t21.5 34 40 17.5 32.5-19l479-544 480 544q14 18 32.5 18.5t40-17 21.5-34-12-30.5l-492-555 510-572q12-14 12-30.5t-21.5-34-40-17.5-32.5 19l-495 563-498-563q-14-18-32.5-18.5t-40 17-21.5 34z"/><glyph unicode="Y" horiz-adv-x="1150" d="M0 1210q0 33 22.5 45.5t42 12.5 33.5-25l477-698 478 700q16 23 34.5 23t36.5-11q25-14 25-35.5t-6-31.5l-512-735v-428q0-20-16.5-33.5t-39-13.5-39 13-16.5 34v424l-514 741q-6 10-6 18z"/><glyph unicode="Z" horiz-adv-x="1222" d="M82 49q0 188 156 348 78 82 151.5 141.5t183.5 137.5l60 43q104 76 166.5 129t125 136 76.5 165h-788v-160q0-20-16.5-33.5t-39-13.5-39 13.5-16.5 33.5v209q0 18 16.5 32.5t39.5 14.5h901q23 0 40-14t17-33q0-172-149-326-76-78-131.5-124t-147.5-113l-102-76q-111-80-175.5-135t-132-146.5-81.5-181.5h833v160q0 20 16.5 33.5t39 13.5 39-13.5 16.5-33.5v-207q0-20-16.5-34.5t-41.5-14.5h-946q-23 0-39 14.5t-16 34.5z"/><glyph unicode="[" horiz-adv-x="591" d="M174-162v1360q0 47 53 47h258q20 0 33.5-14t13.5-34.5-13-34-34-13.5h-202v-1262h202q20 0 33.5-13t13.5-33.5-13-35-34-14.5h-258q-53 0-53 47z"/><glyph unicode="\" horiz-adv-x="786" d="M61 1204q0 29 35 43 14 4 32.5 4t33.5-26l559-1170q4-8 4-18 0-29-35-43-12-4-32.5-4t-34.5 30l-557 1166q-4 8-5 18z"/><glyph unicode="]" horiz-adv-x="591" d="M59-159.5q0 20.5 13.5 33.5t33.5 13h203v1262h-203q-20 0-33.5 13.5t-13.5 34 13.5 34.5 33.5 14h259q53 0 53-47v-1360q0-47-53-47h-259q-20 0-33.5 14.5t-13.5 35z"/><glyph unicode="^" horiz-adv-x="448" d="M8 792.5q0 12.5 8 26.5l162 275q16 25 46 24.5t44-24.5l162-275q8-14 8-26.5t-11-22.5-25.5-10-26.5 18l-152 226-151-226q-12-18-26.5-18t-26 10-11.5 22.5z"/><glyph unicode="_" horiz-adv-x="1103" d="M225-98.5q0 20.5 13.5 35t33.5 14.5h559q20 0 34-14.5t14-35-14-33.5-34-13h-559q-20 0-33.5 13t-13.5 33.5z"/><glyph unicode="`" horiz-adv-x="331" d="M57.5 1089.5q-.5 16.5 16 33t33 16.5 34.5-21l113-127q12-14 12-27.5t-10-23.5-23.5-10-27.5 12l-127 113q-20 18-20.5 34.5z"/><glyph unicode="a" d="M86 212q0 110 87 172t217 62 253-43v142q0 98-72 127-55 20-152 20t-179-33v-129q0-20-16.5-33.5t-39-13.5-39 13.5-16.5 33.5v156q0 27 27 41 100 59 266 59t248-54 82-187v-410q0-39 55-39h80q20 0 33.5-14t13.5-34.5-13.5-34-33.5-13.5h-90q-74 0-114 33t-40 92q0 10 2 22-108-167-313-167h-2q-115 0-179.5 61t-64.5 171zm111 2q0-67 38.5-103.5t106.5-36.5q188 0 301 205v38q-135 37-230.5 37t-155.5-36.5-60-103.5z"/><glyph unicode="b" horiz-adv-x="974" d="M-45 1486.5q0 20.5 13.5 35t33.5 14.5h191q20 0 37.5-14.5t17.5-34.5v-856q104 156 277 156l1-1q174 0 267.5-110.5t93.5-290.5-96.5-292.5-256-112.5-286.5 116v-69q0-20-16.5-33.5t-39-13.5-39 13-16.5 34v1413h-135q-20 0-33.5 13t-13.5 33.5zm293-1289.5q135-123 263-123t197.5 86 69.5 227-68.5 223-187.5 82q-168 0-274-190v-305z"/><glyph unicode="c" horiz-adv-x="880" d="M86 387q0 172 109.5 285.5t272.5 113.5 284-75q25-16 24-39v-172q0-20-16.5-33.5t-39-13.5-38.5 13-16 34v145q-82 47-197 47t-194.5-86-79.5-222 76.5-223 197.5-87q160 0 240 123 16 25 33.5 24.5t35.5-8.5q29-12 29-33.5t-6-32.5q-103-167-329-167h-3q-174 0-278.5 117.5t-104.5 289.5z"/><glyph unicode="d" horiz-adv-x="1036" d="M86 385q0 172 95 286.5t261 114.5 283-108v762h-135q-20 0-33.5 13t-13.5 33.5 13 35 34 14.5h190q23 0 39.5-14.5t16.5-34.5v-1352q0-39 41-39h94q20 0 33.5-13t13.5-33.5-13.5-35-33.5-14.5h-109q-129 0-129 137v8q-45-70-117.5-117.5t-164.5-47.5q-182 0-273.5 116.5t-91.5 288.5zm109-4q0-143 68.5-225t187.5-82q172 0 274 194v301q-53 51-127.5 87t-146.5 36q-117 0-186.5-84t-69.5-227z"/><glyph unicode="e" horiz-adv-x="901" d="M86 387q0 176 106.5 287.5t280.5 111.5 259-104 85-279q0-47-53-47l-567-2q8-127 82.5-203.5t193.5-76.5q160 0 240 123 14 25 32.5 24.5t37-9.5 25.5-28.5-3-36.5q-103-167-329-167h-3q-180 0-283.5 115.5t-103.5 291.5zm115 64h508q-7 110-65 175.5t-167.5 65.5-183.5-66.5-92-174.5z"/><glyph unicode="f" horiz-adv-x="745" d="M-23-424q0 37 48 49 106 33 147 122t41 241v682h-125q-20 0-33.5 13t-13.5 33.5 13.5 35 33.5 14.5h125v463q0 178 74.5 252.5t230.5 74.5 266-67q25-14 25-37v-176q0-20-16.5-33.5t-39-13.5-39 13-16.5 34v154q-71 33-175 33-1 0-3-1-106 0-152-54t-46-181v-461h356q20 0 33.5-14.5t13.5-35-13.5-33.5-33.5-13h-356v-682q0-182-55.5-291t-207.5-160q-23-6-39-6t-29.5 12.5-13.5 32.5z"/><glyph unicode="g" horiz-adv-x="849" d="M29-174q0 127 108 192-45 27-45 93 0 90 141 145-121 92-121 229 0 140 91 223 90 83 218 83t202-48q55 55 55 142 0 43-14 80-8 21-8 37 0 31 32 45 15 6 27 6 33 0 45-35 28-70 28-125 0-123-98-205 74-76 74-203t-95.5-207.5-232.5-80.5q-61 0-117 16-47-14-82.5-44t-35.5-58q0-39 102-58 45-6 326-39 241-31 241-193 0-128-144-195.5t-307-67.5-276.5 70.5-113.5 197.5zm110 17q0-89 75-140t206-51 235.5 45 104.5 123q0 84-148 100-51 4-325 41-45 8-70 16-78-45-78-134zm82 650.5q0-90.5 60.5-146.5t155.5-56 155.5 56 60.5 146.5-60.5 146.5-155.5 56-155.5-56-60.5-146.5z"/><glyph unicode="h" horiz-adv-x="985" d="M-45 1486.5q0 20.5 13.5 35t33.5 14.5h193q20 0 36.5-14.5t16.5-34.5v-858q127 162 301 162 115 0 183.5-58.5t68.5-163.5v-436q0-37 55-37h80q20 0 33.5-14t13.5-34.5-13.5-34-33.5-13.5h-80q-166 0-166 133v436q0 127-141 127-188 0-301-200v-469q0-20-16.5-33.5t-39-13.5-39 13-16.5 34v1413h-135q-20 0-33.5 13t-13.5 33.5z"/><glyph unicode="i" horiz-adv-x="442" d="M12 716.5q0 20.5 13.5 35t33.5 14.5h199q47 0 47-47v-692q0-20-16.5-33.5t-39-13.5-38.5 13-16 34v643h-136q-20 0-33.5 13t-13.5 33.5zm160 406q0 28.5 18.5 49t51 20.5 52-20.5 19.5-49-19.5-49-52-20.5-51 20.5-18.5 49z"/><glyph unicode="j" horiz-adv-x="444" d="M-39-395q0 31 37 43 117 37 158 125t41 241v656h-136q-20 0-33.5 13t-13.5 33.5 13.5 35 33.5 14.5h199q47 0 47-47v-705q0-180-52-283.5t-198-162.5q-20-8-39-8-57 0-57 45zm213 1517.5q0 28.5 18.5 49t51 20.5 52-20.5 19.5-49-19.5-49-52-20.5-51 20.5-18.5 49z"/><glyph unicode="k" horiz-adv-x="907" d="M-45 1486.5q0 20.5 13.5 35t33.5 14.5h191q20 0 37.5-14.5t17.5-34.5v-858q119 162 299 162 117 0 184.5-54.5t67.5-151-62-155.5q-100-96-282-96-68 0-121 14 88-117 222-195.5t271-78.5q20 0 33.5-13.5t13.5-34-13-33.5-34-13q-182 0-332.5 99t-246.5 249v-301q0-20-16.5-33.5t-39-13.5-39 13-16.5 34v1413h-135q-20 0-33.5 13t-13.5 33.5zm293-1052.5q90-14 184-14t175 38 81 122q0 116-139 116h-2q-190 0-299-200v-62z"/><glyph unicode="l" horiz-adv-x="462" d="M-35 1486.5q0 20.5 13.5 35t33.5 14.5h191q23 0 39-14.5t16-34.5v-1352q0-39 55-39h80q20 0 33.5-14t13.5-34.5-13-34-34-13.5h-80q-166 0-166 133v1307h-135q-20 0-33.5 13t-13.5 33.5z"/><glyph unicode="m" horiz-adv-x="1486" d="M12 716.5q0 20.5 13.5 35t33.5 14.5h111q127 0 127-139 63 82 127.5 120.5t157.5 38.5q176 0 217-147 61 74 124.5 110.5t160 36.5 158-56 61.5-165v-430q0-39 55-39h80q20 0 33.5-14t13.5-34.5-13.5-34-33.5-13.5h-80q-166 0-166 133v432q0 127-119 127-160 0-264-178v-487q0-20-16.5-33.5t-39-13.5-39 13-16.5 34v538q0 127-118 127-92 0-155-47t-120-147v-471q0-20-16.5-33.5t-39-13.5-38.5 13-16 34v604q0 39-39 39h-97q-20 0-33.5 13t-13.5 33.5z"/><glyph unicode="n" horiz-adv-x="1042" d="M12 716.5q0 20.5 13.5 35t33.5 14.5h111q127 0 127-139 122 159 307 159h2q111 0 181.5-56t70.5-165v-430q0-39 55-39h80q20 0 33.5-14t13.5-34.5-13-34-34-13.5h-80q-166 0-165 133v432q0 61-38 94t-106 33q-188 0-299-196v-469q0-20-16.5-33.5t-39-13.5-38.5 13-16 34v604q0 39-39 39h-97q-20 0-33.5 13t-13.5 33.5z"/><glyph unicode="o" horiz-adv-x="952" d="M84 383q0 176 110.5 289.5t282.5 113.5 281.5-113.5 109.5-290.5-109.5-289.5-282.5-112.5-282.5 113.5-109.5 289.5zm111-1q0-136 78.5-222t203.5-86 204 86 79 222-79 223-204 87-203.5-87-78.5-223z"/><glyph unicode="p" horiz-adv-x="1034" d="M14 716.5q0 20.5 13.5 35t33.5 14.5h111q127 0 127-137v-8q106 166 282 166 1 0 1-1 178 0 271-113.5t93-287.5-95-289.5-264-115.5-280 116v-518q0-20-16.5-33.5t-39-13.5-38.5 13.5-16 33.5v1053q0 39-39 39h-97q-20 0-33.5 13t-13.5 33.5zm293-519.5q131-123 262-123t200 86 69 227-68 223-186 82q-174 0-277-194v-301z"/><glyph unicode="q" horiz-adv-x="972" d="M86 381q0 176 96.5 290.5t259 114.5 283.5-98v53q0 45 57 45 20 0 37-12t17-33v-1165q0-20-17-32.5t-37-12.5q-57 0-57 45v557q-47-68-120-110.5t-154-42.5q-178 0-271.5 112.5t-93.5 288.5zm109 2q0-143 67.5-226t186.5-83q172 0 276 194v316q-120 109-256 109l-1-1q-136 0-204.5-83t-68.5-226z"/><glyph unicode="r" horiz-adv-x="770" d="M12 716.5q0 20.5 13.5 35t33.5 14.5h105q129 0 133-139 110 159 260 159h2q86 0 146-32 29-16 28-43v-172q0-20-16.5-33.5t-39-13.5-38.5 13-16 34v143q-27 10-80.5 10t-121-50-116.5-148v-467q0-20-16.5-33.5t-39-13.5-38.5 13-16 34v604q0 39-41 39h-95q-20 0-33.5 13t-13.5 33.5z"/><glyph unicode="s" horiz-adv-x="843" d="M94 80v166q0 20 16.5 33.5t39 13.5 39-13.5 16.5-33.5v-140q95-32 199-32h6q233 0 233 131 0 98-219 145-10 2-45 10.5t-57.5 13.5-74.5 24.5-75 39.5q-61 55-61 136t54 131.5 119.5 65.5 143.5 15q143 0 264-55 37-16 37-45v-158q0-20-16.5-33.5t-39-13.5-39 13.5-16.5 33.5v131q-82 33-190 33-209 0-209-119 0-43 27.5-59t41-24.5 48.5-16.5q49-12 100-22.5t84-18.5 83-27.5 79-44.5q72-57 72-149t-60.5-146.5-131-69.5-152.5-15q-162 0-279 53-37 16-37 47z"/><glyph unicode="t" horiz-adv-x="776" d="M41 716.5q0 20.5 13.5 35t33.5 14.5h115v293q0 20 16.5 33.5t39 13.5 38.5-13.5 16-33.5v-293h344q20 0 34-14.5t14-35-13.5-33.5-34.5-13h-344v-439q0-86 36-121.5t133.5-35.5 195.5 57q16 10 37.5 6t30-17.5 8.5-23.5q0-31-23-45-122-72-262-72-1 1-2 1-141 0-202.5 58t-61.5 193v439h-115q-20 0-33.5 13t-13.5 33.5z"/><glyph unicode="u" horiz-adv-x="1042" d="M2 718.5q0 20.5 13.5 34t33.5 13.5h80q166 0 166-133v-432q0-61 38-94t105-33q188 0 299 196v469q0 20 16.5 33.5t39 13.5 39-13 16.5-34v-604q0-39 39-39h96q20 0 33.5-13t13.5-33.5-13-35-34-14.5h-111q-127 0-127 139-122-159-307-159h-2q-111 0-181.5 56t-70.5 165v430q0 39-55 39h-80q-20 0-33.5 14t-13.5 34.5z"/><glyph unicode="v" horiz-adv-x="876" d="M45 733q0 31 37 47 16 8 35.5 8t34.5-30l288-623 287 623q14 31 33 30 49 0 67-36 4-10 4-19.5t-4-17.5l-335-703q-16-33-51-33l-1 1q-36 0-53 32l-338 703q-4 8-4 18z"/><glyph unicode="w" horiz-adv-x="1243" d="M55 735q0 31 37 45 12 6 27 6 33-4 43-28l215-574 192 570q10 33 51 33l2-1q42 0 52-32l194-572 215 576q12 31 32 30.5t36-8.5q37-14 37-45 0-10-4-20l-266-697q-14-39-53-39l-1 1q-40 0-51 36l-190 566-191-566q-10-37-49-37l-1 1q-40 0-54 36l-269 699q-4 10-4 20z"/><glyph unicode="x" horiz-adv-x="876" d="M66 56.5q0 21.5 10 31.5l293 311-281 299q-14 14-10 36t21.5 37 39 15 35.5-14l266-297 262 297q14 14 36 14t39.5-15 21.5-36.5-11-36.5l-280-299 293-311q10-10 10-31.5t-19.5-39-41-17.5-35.5 14l-275 310-278-310q-15-14-36.5-14t-40.5 17.5-19 39z"/><glyph unicode="y" horiz-adv-x="884" d="M-64-411q6 42 41 42l66-6q100 0 164 84 49 63 108 187l70 143-334 676q-8 18 1 36.5t28.5 27.5 39 9 34.5-30l288-606 289 606q14 31 33 30 49 0 67-36 4-10 4.5-19.5t-4.5-17.5l-417-860q-39-82-62.5-122t-68.5-98q-88-104-242-104-43 0-66 6-40 9-40 43 0 4 1 9z"/><glyph unicode="z" horiz-adv-x="892" d="M76 51q0 100 70.5 179t205.5 171l74 52q197 135 231 235h-448v-115q0-20-16.5-33.5t-39-13.5-39 13.5-16.5 33.5v162q0 47 47 47h576q20 0 36.5-13t16.5-34q0-70-48-140.5t-99-111.5q-94-80-146-114l-61-45q-147-109-183-152t-47-78h498v121q0 20 16.5 33.5t39 13.5 39-13.5 16.5-33.5v-170q0-45-54-45h-616q-53 0-53 51z"/><glyph unicode="{" horiz-adv-x="614" d="M84 548.5q0 20.5 13.5 35t46 14.5 69.5 19.5 37 54.5-68.5 154.5-68.5 213.5q0 145 99 232.5t247 87.5h55q20 0 33.5-14.5t13.5-35-13-33.5-34-13h-53q-109 0-174.5-62.5t-65.5-151.5 68.5-202 68.5-172q0-86-79-125 80-41 79.5-111.5t-69-186.5-68.5-202 65.5-148.5 174.5-62.5h45q20 0 33.5-14t13.5-34.5-13.5-34-33.5-13.5h-47q-154 0-250 88t-96 231q0 106 102 275 35 57 35 93t-38 54.5-69.5 18.5-45 12-13.5 32.5z"/><glyph unicode="|" horiz-adv-x="442" d="M166-422v1931q0 20 16.5 33.5t39 13.5 38.5-13.5 16-33.5v-1931q0-20-16-33.5t-38.5-13.5-39 13.5-16.5 33.5z"/><glyph unicode="}" horiz-adv-x="614" d="M53 1310.5q0 20.5 13.5 35t33.5 14.5h56q147 0 246.5-87t99.5-233q0-94-68.5-213.5t-68.5-154.5 36.5-54.5 69.5-19.5 46-14.5 13-35-13-32.5-45-12-69.5-18.5-37.5-54.5 34-93q102-168 103-275 0-143-96.5-231t-249.5-88h-47q-20 0-34 13.5t-14 34 13.5 34.5 34.5 14h45q109 0 174 62.5t65 148.5-68.5 202-68.5 186.5 80 111.5q-80 39-80 125 0 59 68.5 172t68.5 202-65.5 151.5-173.5 62.5h-54q-20 0-33.5 13t-13.5 33.5z"/><glyph unicode="~" horiz-adv-x="1142" d="M121 373q0 96 59.5 157.5t157.5 61.5 177-42 149.5-84 135-42 93.5 36 29 87q0 47 52 47t52-47q0-98-60.5-157.5t-157.5-59.5-177 42-149.5 84-133 42-93.5-37-30-88q0-45-52-45t-52 45z"/><glyph unicode="¡" horiz-adv-x="466" d="M164 1196q0 29 18.5 49.5t51 20.5 51-20.5 18.5-49.5-18.5-48.5-51-19.5-51 19.5-18.5 48.5zm4-1169l18 974q0 18 13.5 30.5t34 12.5 34-12 13.5-31l18-974q0-20-18.5-33.5t-47-13.5-47 13-18.5 34z"/><glyph unicode="¢" horiz-adv-x="888" d="M90 386q0 157 90 264.5t238 129.5v201q0 20 16.5 33.5t39 13.5 38.5-13.5 16-33.5v-197q131-12 228-73 25-16 24-39v-172q0-20-16-33.5t-39-13.5-39 13-16 34v145q-66 35-142 45v-612q117 19 185 119 14 25 32 24 49 0 62-37 4-8 4-17t-6-20q-92-145-277-163v-199q0-20-16-33.5t-38.5-13.5-39 13-16.5 34v199q-152 18-240 131.5t-88 270.5zm109-3q0-119 60-201t159-102v604q-99-22-159-102t-60-199z"/><glyph unicode="£" horiz-adv-x="1067" d="M86 47.5q0 20.5 13.5 34.5t33.5 14h125v574h-125q-20 0-33.5 13t-13.5 33.5 13.5 35 33.5 14.5h125v113q0 182 90 284.5t261 102.5 292-76q25-19 25-37v-174q0-20-16.5-33.5t-39-13.5-39 13-16.5 34v145q-86 47-206 47t-181-76.5-61-213.5v-115h243q20 0 33.5-14.5t13.5-35-13-33.5-34-13h-243v-574h495v119q0 20 16.5 33.5t39 13.5 39-13 16.5-34v-174q0-41-47-41h-793q-20 0-33.5 13.5t-13.5 34z"/><glyph unicode="¤" horiz-adv-x="841" d="M121 635.5q0 17.5 18.5 36t34.5 18.5l39-22 70-72q57 39 137 39t137-39l70 72q20 20 39.5 20t37-18.5 17.5-35-16-32.5l-82-80q39-61 39-133t-37-133l82-80q16-16 16-32.5t-17.5-34-36-17.5-40.5 21l-74 71q-59-39-139-39t-133 37l-70-69q-18-18-41-19l-35 17q-14 16-14 32.5t14 34.5l76 78q-37 59-37 135t37 135l-76 76q-16 16-16 33.5zm160-244q0-67.5 39.5-111.5t99-44 98.5 44 39 111.5-39 110.5-98.5 43-99-43-39.5-110.5z"/><glyph unicode="¥" horiz-adv-x="1085" d="M63 1210q0 33 23 45.5t42 12.5 34-25l381-614 381 614q14 25 34 25 49 0 62-39 2-8 2-17.5t-6-19.5l-379-600h250q20 0 33.5-14.5t13.5-35-13.5-33.5-33.5-13h-287v-152h287q20 0 33.5-14.5t13.5-35-13.5-33.5-33.5-13h-287v-221q0-20-16.5-33.5t-39-13.5-39 13.5-16.5 33.5v221h-290q-20 0-33.5 13t-13.5 33.5 13 35 34 14.5h290v152h-290q-20 0-33.5 13t-13.5 33.5 13 35 34 14.5h247l-376 600q-6 10-7 18z"/><glyph unicode="¦" horiz-adv-x="454" d="M172-317v647q0 20 16.5 33.5t39 13.5 39-13.5 16.5-33.5v-647q0-20-16.5-34t-39-14-39 13.5-16.5 34.5zm0 1052v647q0 20 16.5 34t39 14 39-14 16.5-34v-647q0-20-16.5-33.5t-39-13.5-39 13.5-16.5 33.5z"/><glyph unicode="§" horiz-adv-x="897" d="M115 80v172q0 20 16 33.5t39 13.5 39-13.5 16-33.5v-141q100-37 194.5-37t169.5 39 75 116.5-68 130-146.5 69.5-106.5 24.5-76 27-72 39.5q-63 53-64 135 0 115 125 185-121 68-121 187.5t100.5 179 230.5 59.5 253-60q37-18 37-43v-168q0-20-16.5-33.5t-39-13.5-39 13.5-16.5 33.5v140q-84 37-177 36.5t-157.5-37-64.5-103 69.5-106.5 136-52.5 102.5-20.5 84-26.5 75-39.5q66-53 65-143 0-135-131-188 131-92 131-222 0-86-61-147-106-106-273.5-106t-291.5 55q-37 14-37 45zm125 567q0-51 75.5-83t229.5-54q43 8 84 44t41 79-23.5 67.5-63.5 39-78 22.5-83 16-62 13q-47-15-83.5-54t-36.5-90z"/><glyph unicode="¨" horiz-adv-x="526" d="M61 1014q0 63 64 63 29 0 46-18.5t17-45-17-44-47-17.5-46.5 17.5-16.5 44.5zm277 0q0 63 63 63 29 0 46.5-18.5t17.5-45-17.5-44-47-17.5-46 17.5-16.5 44.5z"/><glyph unicode="©" horiz-adv-x="1441" d="M96 621.5q0 277.5 174 461t450.5 183.5 451-183.5 174.5-461-174.5-459.5-452-182-450.5 182-173 459.5zm111 1q0-237.5 142.5-393t371.5-155.5 371.5 155.5 142.5 393-142.5 393-371.5 155.5-371.5-155.5-142.5-393zm172-2q0 157.5 94 255t230.5 97.5 236.5-53q33-16 33-39v-93q0-20-16.5-33.5t-39-13.5-38 13.5-15.5 33.5v66q-63 29-157.5 29t-159-73-64.5-187.5 64.5-187.5 171-73 184.5 82q16 18 31.5 18.5t35-15 19.5-31-10-27.5q-102-117-258-117t-249 95.5-93 253z"/><glyph unicode="ª" horiz-adv-x="804" d="M102 857q0 83 65.5 127t156 44 163.5-18v73q0 47-29.5 67.5t-101 20.5-114.5-14v-59q0-20-16.5-33.5t-39-13.5-38 13-15.5 34v86q0 25 33 43 72 39 191.5 39t179-41 59.5-142v-290q0-14 18-15h58q20 0 33.5-13t13.5-33.5-13.5-34-33.5-13.5h-51q-104 0-125 64-86-63-186.5-63.5t-154 44.5-53.5 128zm109-5q0-74 86-74 117 0 190 127v8q-76 20-149 21-127 0-127-82z"/><glyph unicode="«" horiz-adv-x="1112" d="M80 393.5q0 22.5 26 40.5l406 293q12 10 22.5 10t23.5-1 25.5-18.5 12.5-35.5-23-35l-360-254 360-252q23-16 23-34.5t-12-34.5q-14-20-37-20.5t-35 9.5l-406 291q-26 19-26 41.5zm420 0q0 22.5 26 40.5l406 293q12 10 22.5 10t23.5-1 25.5-18.5 12.5-35.5-23-35l-360-254 360-252q23-16 23-34.5t-12-34.5q-14-20-37-20.5t-35 9.5l-406 291q-26 19-26 41.5z"/><glyph unicode="¬" horiz-adv-x="972" d="M127 571.5q0 20.5 13.5 35t33.5 14.5h612q47 0 48-43v-316q0-20-16.5-33.5t-39-13.5-39 13.5-16.5 33.5v262h-549q-20 0-33.5 13.5t-13.5 34z"/><glyph unicode="­" horiz-adv-x="817" d="M123 448.5q0 20.5 13.5 35t33.5 14.5h477q20 0 33.5-14.5t13.5-35-13.5-34-33.5-13.5h-477q-20 0-33.5 13.5t-13.5 34z"/><glyph unicode="®" horiz-adv-x="1441" d="M96 621.5q0 277.5 174 461t450.5 183.5 451-183.5 174.5-461-174.5-459.5-452-182-450.5 182-173 459.5zm111 1q0-237.5 142.5-393t371.5-155.5 371.5 155.5 142.5 393-142.5 393-371.5 155.5-371.5-155.5-142.5-393zm172 284q0 19.5 13.5 32.5t33.5 13h336q258 0 258-221 0-139-123-194l125-211q10-18 3-36t-24.5-27-37-9-35.5 27l-133 227h-222v-207q0-20-16-33.5t-38.5-13.5-38 13.5-15.5 33.5v559h-39q-20 0-33.5 13.5t-13.5 33zm194-306.5h189q150 0 149.5 130t-149.5 130h-189v-260z"/><glyph unicode="¯" horiz-adv-x="587" d="M68 976.5q0 20.5 13 35t34 14.5h360q20 0 33.5-14.5t13.5-35-13.5-33.5-33.5-13h-360q-20 0-33.5 13t-13.5 33.5z"/><glyph unicode="°" horiz-adv-x="628" d="M98 1051.5q0 95.5 59.5 155t157 59.5 156.5-60.5 59-155-60-153.5-155.5-59-156 59-60.5 154.5zm99 0q0-56.5 31.5-92t86-35.5 86 35.5 31.5 92-31.5 92.5-86 36-86-36-31.5-92.5z"/><glyph unicode="±" horiz-adv-x="800" d="M115 47.5q0 20.5 13.5 34.5t33.5 14h477q20 0 33.5-14t13.5-34.5-13.5-34-33.5-13.5h-477q-20 0-33.5 13.5t-13.5 34zm0 442q0 20.5 13 35t34 14.5h188v190q0 20 14.5 33.5t35 13.5 33.5-13.5 13-33.5v-190h193q20 0 33.5-14.5t13.5-35-13.5-34-33.5-13.5h-193v-190q0-20-13-33.5t-33.5-13.5-35 13-14.5 34v190h-188q-20 0-33.5 13.5t-13.5 34z"/><glyph unicode="²" horiz-adv-x="751" d="M115 731q0 84 61.5 147.5t135 93 135 64.5 61.5 70q0 66-137 65-66 0-125-16v-72q0-20-16.5-33.5t-39-13.5-38 13.5-15.5 33.5v101q0 27 58.5 54.5t175.5 27.5q248 0 247-160 0-61-51-107.5t-116-70.5q-180-68-215-150h288v66q0 20 15.5 33.5t38 13.5 39-13.5 16.5-33.5v-113q0-47-47-47h-422q-49 0-49 47z"/><glyph unicode="³" horiz-adv-x="727" d="M113 756v71q0 20 15 33.5t37.5 13.5 39-13 16.5-34v-41q66-20 139-20 152 0 152 74 0 98-199 98-20 0-33.5 13.5t-13.5 34 13.5 33.5 33.5 13q182 0 183 80 0 57-134 57-57 0-126-16v-39q0-20-16.5-33.5t-39-13.5-38 13.5-15.5 33.5v70q0 27 31 41 80 39 204 39 244 0 244-152 0-72-100-125 115-49 115-147 0-168-261-168-119 0-206 39-41 18-41 45z"/><glyph unicode="´" horiz-adv-x="331" d="M63 963.5q0 13.5 13 27.5l112 127q18 20 35 20.5t33-16 16-33-20-34.5l-127-113q-14-12-27.5-12t-24 10-10.5 23.5z"/><glyph unicode="µ" horiz-adv-x="1185" d="M49-391q0 31 31 41 117 37 158 122.5t41 241.5v725q0 20 16 33.5t38.5 13.5 39-13 16.5-34v-551q0-55 39-84.5t104-29.5q188 0 299 196v469q0 20 16.5 33.5t39 13.5 39-13 16.5-34v-604q0-39 39-39h96q20 0 33.5-13t13.5-33.5-13-35-34-14.5h-110q-127 0-127 139-123-160-310-159-94 0-141 38-2-182-54-286.5t-200-163.5q-25-8-35-8-51 0-51 49z"/><glyph unicode="¶" horiz-adv-x="1067" d="M61 904q0 167 102.5 254t282.5 87h492q20 0 33.5-14t13.5-34.5-13.5-34-33.5-13.5h-102v-1364q0-20-16.5-33.5t-39-13.5-38 13-15.5 34v1364h-106v-1364q0-20-16.5-33.5t-39-13.5-38 13-15.5 34v778h-66q-180 0-282.5 87t-102.5 254z"/><glyph unicode="·" horiz-adv-x="395" d="M123 774q0 31 19.5 52.5t54 21.5 55-21.5 20.5-52.5-20.5-52.5-55-21.5-54 21.5-19.5 52.5z"/><glyph unicode="¸" horiz-adv-x="524" d="M61-276.5q0 38.5 41 38.5 6 0 56.5-23.5t94.5-23.5 71.5 17.5 27.5 48.5q0 72-119 72-45 0-45 36 0 16 13 37l39 80h118l-36-84q66-8 103.5-48t37.5-101.5-57.5-104.5-138.5-43-143.5 30-62.5 68.5z"/><glyph unicode="¹" horiz-adv-x="563" d="M113 1108q0 23 18.5 35t52 35.5 57 55.5 56.5 32q53 0 53-39v-447h78q20 0 33.5-13t13.5-34q0-49-47-49h-260q-47 0-47 49 0 20 13.5 33.5t33.5 13.5h72v324q-49-41-82-41-45 0-45 45z"/><glyph unicode="º" horiz-adv-x="765" d="M92 965q0 129 81 213t209 84 210-86 82-212-83-211-210-85-208 84-81 213zm111 1q0-89 50-146.5t129-57.5 130 57.5 51 146.5-50 145-130 56-130-56-50-145z"/><glyph unicode="»" horiz-adv-x="1112" d="M96 106.5q0 18.5 23 34.5l360 252-360 254q-23 16-23 34.5t13 35.5q14 20 36.5 20t34.5-10l406-293q27-18 26.5-40.5t-26.5-41.5l-406-291q-12-10-22.5-10t-23.5 1-25.5 18.5-12.5 36zm420 0q0 18.5 23 34.5l360 252-360 254q-23 16-23 34.5t12 35.5q14 20 37 20t35-10l406-293q27-18 26.5-40.5t-26.5-41.5l-406-291q-12-10-22.5-10t-23.5 1-25.5 18.5-12.5 36z"/><glyph unicode="¼" horiz-adv-x="1116" d="M104 1108q0 23 18.5 35t52.5 35.5 57.5 55.5 56.5 32q53 0 53-39v-447h78q20 0 33.5-13t13.5-34q0-49-47-49h-260q-47 0-47 49 0 20 13.5 33.5t33.5 13.5h71v324q-49-41-81-41-45 0-46 45zm2-1071.5q0 16.5 11 31.5l807 1163q14 25 32.5 24.5t43-14.5 24.5-31.5-10-29.5l-807-1164q-14-25-32.5-24.5t-43.5 14.5-25 30.5zm338 96.5q0 18 11 35l254 383q14 25 32.5 24.5t43-14.5 24.5-31.5-10-29.5l-213-318h221v78q0 20 15.5 33.5t38 13.5 38.5-13 16-34v-78h72q20 0 33.5-13t13.5-34q0-49-47-49h-72v-59q0-20-16-33.5t-38.5-13.5-38 13-15.5 34v59h-307q-55 0-56 47z"/><glyph unicode="½" horiz-adv-x="1169" d="M84 36.5q0 16.5 10 31.5l807 1163q14 25 32.5 24.5t43-14.5 24.5-31.5-10-29.5l-807-1164q-14-25-32.5-24.5t-43 14.5-24.5 30.5zm35 1071.5q0 23 18.5 35t52 35.5 57 55.5 56.5 32q53 0 53-39v-447h78q20 0 33.5-13t13.5-34q0-49-47-49h-260q-47 0-47 49 0 20 13.5 33.5t33.5 13.5h72v324q-49-41-82-41-45 0-45 45zm446-1061q0 84 61.5 147.5t135.5 93 135 64.5 61 70q0 66-137 65-66 0-125-16v-72q0-20-16-33.5t-39-13.5-38 13.5-15 33.5v101q0 27 58.5 54.5t174.5 27.5q248 0 248-160 0-61-51-107.5t-117-70.5q-180-68-215-150h289v66q0 20 15.5 33.5t38 13.5 38.5-13.5 16-33.5v-113q0-47-47-47h-422q-49 0-49 47z"/><glyph unicode="¾" horiz-adv-x="1185" d="M88 756v71q0 20 15.5 33.5t38 13.5 39-13 16.5-34v-41q66-20 139-20 152 0 151 74 0 98-198 98-20 0-33.5 13.5t-13.5 34 13.5 33.5 33.5 13q182 0 182 80 0 57-133 57-57 0-127-16v-39q0-20-16.5-33.5t-39-13.5-38 13.5-15.5 33.5v70q0 27 31 41 80 39 205 39 244 0 244-152 0-72-101-125 115-49 115-147 0-168-260-168-119 0-207 39-41 18-41 45zm96-719.5q0 16.5 11 31.5l806 1163q14 25 33 24.5t43.5-14.5 24.5-31.5-10-29.5l-807-1164q-14-25-33-24.5t-43.5 14.5-24.5 30.5zm332 72.5q-14 29 4 59l254 383q14 25 32.5 24.5t43-14.5 24.5-31.5-10-29.5l-213-318h221v78q0 20 15.5 33.5t38 13.5 39-13 16.5-34v-78h72q20 0 33.5-13t13.5-34q0-49-47-49h-72v-59q0-20-16.5-33.5t-39-13.5-38 13.5-15.5 33.5v59h-307q-35 0-49 23z"/><glyph unicode="¿" horiz-adv-x="966" d="M63 264q0 137 76 219 41 43 73 67.5t87 59.5 82 54.5 61 56.5q70 74 70 197 0 20 16.5 33.5t39 13.5 39-13.5 16.5-33.5q0-121-54-211-20-35-62-72t-66.5-53.5-96.5-61.5-121-102.5-49-153.5q0-190 320-190 178 0 294 53v149q0 20 16.5 34t39 14 38-13.5 15.5-34.5v-165q0-39-49-62-143-70-354-69-430 0-431 284zm431 930q0 29 20.5 50.5t53 21.5 52-21.5 19.5-50.5-19.5-50.5-52-21.5-53 21.5-20.5 50.5z"/><glyph unicode="À" horiz-adv-x="1273" d="M10 29q0 8 4 18l545 1102h-88q-20 0-33.5 13.5t-13.5 34 13.5 34.5 33.5 14h182q33 0 45-24l580-1172q4-8 4-18 0-35-33-47-12-4-22-4-35 0-47 26l-191 385h-686l-190-385q-18-41-70-22-33 12-33 45zm338 456h596l-299 615zm92.5 1083.5q-.5 16.5 16 33t33 16.5 34.5-21l113-127q12-14 12-27t-10-23.5-23.5-10.5-27.5 12l-127 113q-20 18-20.5 34.5z"/><glyph unicode="Á" horiz-adv-x="1273" d="M10 29q0 8 4 18l545 1102h-88q-20 0-33.5 13.5t-13.5 34 13.5 34.5 33.5 14h182q33 0 45-24l580-1172q4-8 4-18 0-35-33-47-51-18-69 22l-191 385h-686l-190-385q-12-27-47-26-10 0-23 4-33 12-33 45zm338 456h596l-299 615zm242 958q0 13 12 27l113 127q18 20 34.5 20.5t33-16 16.5-33-21-34.5l-127-113q-14-12-27.5-12t-23.5 10.5-10 23.5z"/><glyph unicode="Â" horiz-adv-x="1273" d="M10 29q0 8 4 18l545 1102h-88q-20 0-33.5 13.5t-13.5 34 13.5 34.5 33.5 14h182q33 0 45-24l580-1172q4-8 4-18 0-35-33-47-12-4-22-4-35 0-47 26l-191 385h-686l-190-385q-18-41-70-22-33 12-33 45zm338 456h596l-299 615zm152 944.5q0 12.5 10 24.5l90 119q16 23 45 22.5t45-22.5l90-119q10-12 10.5-24.5t-11-22.5-23.5-10l-31 16-80 84-80-84q-16-16-30-16l-23 8q-12 12-12 24.5z"/><glyph unicode="Ã" horiz-adv-x="1273" d="M10 29q0 8 4 18l545 1102h-88q-20 0-33.5 13.5t-13.5 34 13.5 34.5 33.5 14h182q33 0 45-24l580-1172q4-8 4-18 0-35-33-47-12-4-22-4-35 0-47 26l-191 385h-686l-190-385q-18-41-70-22-33 12-33 45zm338 456h596l-299 615zm31 977.5q0 53.5 37 91t100.5 37.5 140-45 101.5-45q41 0 41 45t47 45 47-52-37-89-99.5-37-136 44-104.5 44q-43 0-43-46t-47-46-47 53.5z"/><glyph unicode="Ä" horiz-adv-x="1273" d="M10 29q0 8 4 18l545 1102h-88q-20 0-33.5 13.5t-13.5 34 13.5 34.5 33.5 14h182q33 0 45-24l580-1172q4-8 4-18 0-35-33-47-51-18-69 22l-191 385h-686l-190-385q-12-27-47-26-10 0-23 4-33 12-33 45zm338 456h596l-299 615zm96 1008q0 63 64 63 29 0 46-18t17-45-17-44-47-17-46.5 17-16.5 44zm277 0q0 63 63 63 29 0 46.5-18t17.5-45-17.5-44-47-17-46 17-16.5 44z"/><glyph unicode="Å" horiz-adv-x="1273" d="M10 29q0 8 4 18l545 1102h-88q-20 0-33.5 13.5t-13.5 34 13.5 34.5 33.5 14h182q33 0 45-24l580-1172q4-8 4-18 0-35-33-47-51-18-69 22l-191 385h-686l-190-385q-12-27-47-26-10 0-23 4-33 12-33 45zm338 456h596l-299 615zm154 1018.5q0 59.5 40 97t103.5 37.5 104.5-37.5 41-97-41-97.5-104.5-38-103.5 38-40 97.5zm78-.5q0-33 19-50t46-17 47.5 17 20.5 50-20.5 50.5-47.5 17.5-46-17.5-19-50.5z"/><glyph unicode="Æ" horiz-adv-x="1867" d="M-27 37.5q0 9.5 9 19.5l772 1092h-64q-23 0-39 14.5t-16 35 15.5 33.5 39.5 13h1039q53 0 53-49v-168q0-20-16.5-33.5t-39-13.5-39 13.5-16.5 33.5v121h-672v-475h578v76q0 20 15.5 33.5t38 13.5 37.5-13.5 15-33.5v-250q0-20-15-33.5t-37.5-13.5-38 13-15.5 34v78h-578v-482h727q25 0 40.5-13t15.5-33.5-16.5-35-39.5-14.5h-786q-51 0-51 45v533h-410l-407-578q-16-23-35-23-49 0-62 43-2 8-2 17.5zm574 636.5h342v475h-8z"/><glyph unicode="Ç" horiz-adv-x="1249" d="M96 628.5q0 278.5 168 458t423 179.5 425-99q31-16 31-43v-176q0-20-16.5-33.5t-39-13.5-39 13.5-16.5 33.5v152q-152 70-334 69-219 0-355-152.5t-136-394 136-394 371-152.5 376 172q14 20 32.5 20t40-17.5 21.5-33.5-13-31q-147-178-407-202l-27-62q66-8 104-48t38-101.5-57.5-104.5-138.5-43-143.5 30-62.5 68.5 41 38.5q6 0 56.5-23.5t94.5-23.5 71.5 17.5 27.5 48.5q0 72-119 72-45 0-45 36 0 16 12 37l27 56q-244 18-395.5 193t-151.5 453.5z"/><glyph unicode="È" horiz-adv-x="1187" d="M41 1196.5q0 20.5 13.5 34.5t33.5 14h961q53 0 53-49v-168q0-20-16.5-33.5t-39-13.5-39 13.5-16.5 33.5v121h-672v-475h578v76q0 20 15.5 33.5t38 13.5 38-13.5 15.5-33.5v-250q0-20-15.5-33.5t-38-13.5-38 13-15.5 34v78h-578v-482h728q25 0 40-13t15-33.5-16.5-35-38.5-14.5h-787q-51 0-51 45v1104h-121q-20 0-33.5 13.5t-13.5 34zm451 372q0 16.5 16 33t32.5 16.5 34.5-21l113-127q12-14 12-27t-10-23.5-23.5-10.5-27.5 12l-127 113q-20 18-20 34.5z"/><glyph unicode="É" horiz-adv-x="1187" d="M41 1196.5q0 20.5 13.5 34.5t33.5 14h961q53 0 53-49v-168q0-20-16.5-33.5t-39-13.5-39 13.5-16.5 33.5v121h-672v-475h578v76q0 20 15.5 33.5t38 13.5 38-13.5 15.5-33.5v-250q0-20-15.5-33.5t-38-13.5-38 13-15.5 34v78h-578v-482h728q25 0 40-13t15-33.5-16.5-35-38.5-14.5h-787q-51 0-51 45v1104h-121q-20 0-33.5 13.5t-13.5 34zm504 246.5q0 13 12 27l113 127q18 20 34.5 20.5t33-16 16.5-33-21-34.5l-127-113q-14-12-27.5-12t-23.5 10.5-10 23.5z"/><glyph unicode="Ê" horiz-adv-x="1187" d="M41 1196.5q0 20.5 13.5 34.5t33.5 14h961q53 0 53-49v-168q0-20-16.5-33.5t-39-13.5-39 13.5-16.5 33.5v121h-672v-475h578v76q0 20 15.5 33.5t38 13.5 38-13.5 15.5-33.5v-250q0-20-15.5-33.5t-38-13.5-38 13-15.5 34v78h-578v-482h728q25 0 40-13t15-33.5-16.5-35-38.5-14.5h-787q-51 0-51 45v1104h-121q-20 0-33.5 13.5t-13.5 34zm434 233q0 12.5 10 24.5l90 119q16 23 45 22.5t46-22.5l90-119q10-12 10-24.5t-11.5-22.5-23.5-10l-31 16-79 84-80-84q-16-16-31-16l-23 8q-12 12-12 24.5z"/><glyph unicode="Ë" horiz-adv-x="1187" d="M41 1196.5q0 20.5 13.5 34.5t33.5 14h961q53 0 53-49v-168q0-20-16.5-33.5t-39-13.5-39 13.5-16.5 33.5v121h-672v-475h578v76q0 20 15.5 33.5t38 13.5 38-13.5 15.5-33.5v-250q0-20-15.5-33.5t-38-13.5-38 13-15.5 34v78h-578v-482h728q25 0 40-13t15-33.5-16.5-35-38.5-14.5h-787q-51 0-51 45v1104h-121q-20 0-33.5 13.5t-13.5 34zm369 296.5q0 63 63 63 29 0 46.5-18t17.5-45-17.5-44-47.5-17-46 17-16 44zm276 0q0 63 64 63 29 0 46-18t17-45-17.5-44-47-17-46 17-16.5 44z"/><glyph unicode="Ì" horiz-adv-x="569" d="M61 49.5q0 20.5 13.5 33.5t34.5 13h120v1053h-120q-20 0-34 13.5t-14 34 13.5 34.5 34.5 14h352q20 0 33.5-14t13.5-34.5-13.5-34-33.5-13.5h-121v-1053h121q20 0 33.5-13t13.5-33.5-13.5-35-33.5-14.5h-352q-20 0-34 14.5t-14 35zm107 1519q0 16.5 16.5 33t32.5 16.5 35-21l113-127q12-14 12-27t-10.5-23.5-23.5-10.5-28 12l-127 113q-20 18-20 34.5z"/><glyph unicode="Í" horiz-adv-x="569" d="M61 49.5q0 20.5 13.5 33.5t34.5 13h120v1053h-120q-20 0-34 13.5t-14 34 13.5 34.5 34.5 14h352q20 0 33.5-14t13.5-34.5-13.5-34-33.5-13.5h-121v-1053h121q20 0 33.5-13t13.5-33.5-13.5-35-33.5-14.5h-352q-20 0-34 14.5t-14 35zm123 1393.5q0 13 13 27l112 127q18 20 34.5 20.5t33-16 16.5-33-20-34.5l-127-113q-14-12-27.5-12t-24 10.5-10.5 23.5z"/><glyph unicode="Î" horiz-adv-x="569" d="M61 49.5q0 20.5 13.5 33.5t34.5 13h120v1053h-120q-20 0-34 13.5t-14 34 13.5 34.5 34.5 14h352q20 0 33.5-14t13.5-34.5-13.5-34-33.5-13.5h-121v-1053h121q20 0 33.5-13t13.5-33.5-13.5-35-33.5-14.5h-352q-20 0-34 14.5t-14 35zm82.5 1380q-.5 12.5 10.5 24.5l90 119q16 23 44.5 22.5t45.5-22.5l90-119q10-12 10-24.5t-11-22.5-24-10l-30 16-80 84-80-84q-16-16-31-16l-22 8q-12 12-12.5 24.5z"/><glyph unicode="Ï" horiz-adv-x="569" d="M61 49.5q0 20.5 13.5 33.5t34.5 13h120v1053h-120q-20 0-34 13.5t-14 34 13.5 34.5 34.5 14h352q20 0 33.5-14t13.5-34.5-13.5-34-33.5-13.5h-121v-1053h121q20 0 33.5-13t13.5-33.5-13.5-35-33.5-14.5h-352q-20 0-34 14.5t-14 35zm27 1443.5q0 63 64 63 29 0 46-18t17-45-17.5-44-47-17-46 17-16.5 44zm277 0q0 63 63 63 29 0 46.5-18t17.5-45-17.5-44-47.5-17-46 17-16 44z"/><glyph unicode="Ð" horiz-adv-x="1345" d="M39 1196.5q0 20.5 13.5 34.5t33.5 14h547q279 0 447.5-169t168.5-455.5-165.5-453.5-450.5-167h-371q-53 0-53 47v545h-121q-20 0-33.5 13t-13.5 33.5 13.5 35 33.5 14.5h121v461h-123q-20 0-33.5 13.5t-13.5 34zm280-1100.5h314q238 0 372 138.5t134 385-137.5 388-368.5 141.5h-314v-461h185q20 0 33.5-14.5t13.5-35-13.5-33.5-33.5-13h-185v-496z"/><glyph unicode="Ñ" horiz-adv-x="1429" d="M41 1198.5q0 20.5 15.5 33.5t39.5 13h160q33 0 51-20l803-1032v956h-121q-20 0-33.5 13.5t-13.5 34 13.5 34.5 33.5 14h352q20 0 34-14t14-34.5-13.5-34-34.5-13.5h-120v-1116q0-53-54-53-29 0-49 28l-799 1028v-1009q0-20-16-33.5t-38.5-13.5-39 13-16.5 34v1122h-113q-23 0-39 14.5t-16 35zm422 264q0 53.5 37 91t100.5 37.5 140-45 101.5-45q41 0 41 45t47 45 47-52-37-89-99.5-37-136 44-104.5 44q-43 0-43-46t-47-46-47 53.5z"/><glyph unicode="Ò" horiz-adv-x="1425" d="M94 622.5q0 278.5 173 461t445.5 182.5 445.5-182.5 173-462-173-460.5-445.5-181-445.5 182-173 460.5zm111 0q0-237.5 141-392t366.5-154.5 367 154.5 141.5 392-141.5 392-367 154.5-366.5-154.5-141-392zm381 946q0 16.5 16 33t32.5 16.5 35.5-21l112-127q12-14 12.5-27t-10-23.5-23.5-10.5-28 12l-127 113q-20 18-20 34.5z"/><glyph unicode="Ó" horiz-adv-x="1425" d="M94 622.5q0 278.5 173 461t445.5 182.5 445.5-182.5 173-462-173-460.5-445.5-181-445.5 182-173 460.5zm111 0q0-237.5 141-392t366.5-154.5 367 154.5 141.5 392-141.5 392-367 154.5-366.5-154.5-141-392zm420 820.5q0 13 12 27l113 127q18 20 34.5 20.5t33-16 16.5-33-21-34.5l-127-113q-14-12-27.5-12t-23.5 10.5-10 23.5z"/><glyph unicode="Ô" horiz-adv-x="1425" d="M94 622.5q0 278.5 173 461t445.5 182.5 445.5-182.5 173-462-173-460.5-445.5-181-445.5 182-173 460.5zm111 0q0-237.5 141-392t366.5-154.5 367 154.5 141.5 392-141.5 392-367 154.5-366.5-154.5-141-392zm381 807q0 12.5 10 24.5l90 119q16 23 45 22.5t45-22.5l90-119q10-12 10.5-24.5t-11-22.5-23.5-10l-31 16-80 84-80-84q-16-16-30-16l-23 8q-12 12-12 24.5z"/><glyph unicode="Õ" horiz-adv-x="1425" d="M94 622.5q0 278.5 173 461t445.5 182.5 445.5-182.5 173-462-173-460.5-445.5-181-445.5 182-173 460.5zm111 0q0-237.5 141-392t366.5-154.5 367 154.5 141.5 392-141.5 392-367 154.5-366.5-154.5-141-392zm250 840q0 53.5 36.5 91t100 37.5 140.5-45 102-45q41 0 40.5 45t47 45 47.5-52-37-89-99.5-37-136 44-104.5 44q-43 0-43-46t-47-46-47 53.5z"/><glyph unicode="Ö" horiz-adv-x="1425" d="M94 622.5q0 278.5 173 461t445.5 182.5 445.5-182.5 173-462-173-460.5-445.5-181-445.5 182-173 460.5zm111 0q0-237.5 141-392t366.5-154.5 367 154.5 141.5 392-141.5 392-367 154.5-366.5-154.5-141-392zm323 870.5q0 63 64 63 29 0 46-18t17-45-17-44-47-17-46.5 17-16.5 44zm277 0q0 63 63 63 29 0 46.5-18t17.5-45-17.5-44-47-17-46 17-16.5 44z"/><glyph unicode="×" horiz-adv-x="995" d="M88 733q0 19 20.5 39.5t39 20.5 32.5-15l318-319 317 319q14 14 32.5 14.5t39-20 20.5-39-14-33.5l-320-317 318-315q14-14 14-35t-18-39-39-18.5-35 14.5l-315 317-316-317q-14-14-24.5-14.5t-21.5.5-28.5 18.5-17.5 38 14 35.5l318 315-320 317q-14 14-14 33z"/><glyph unicode="Ø" horiz-adv-x="1425" d="M94 623q0 279 173 461t446 182q180 0 323-86l45 63q14 25 33 25t43.5-14.5 24.5-32-11-29.5l-51-74q211-182 211-479t-173-478-445-181q-178 0-324 83l-43-61q-14-25-32.5-25t-43 14.5-24.5 32 10 29.5l49 72q-211 183-211 498zm111-9.5q0-246.5 160-402.5l614 885q-119 74-266 73-226 0-367-154.5t-141-401zm241-466.5q115-72 267-71 225 0 366.5 154.5t141.5 400.5-160 401z"/><glyph unicode="Ù" horiz-adv-x="1323" d="M20 1196.5q0 20.5 13.5 34.5t34.5 14h178q20 0 36.5-14t16.5-35v-807q0-139 104.5-226t270.5-87 271.5 87 105.5 226v760h-121q-20 0-33.5 13.5t-13.5 34 13.5 34.5 33.5 14h178q53 0 53-49v-807q0-188-142-298.5t-351-110.5-344.5 114.5-135.5 294.5v760h-120q-20 0-34 13.5t-14 34zm496.5 372q-.5 16.5 16 33t33 16.5 34.5-21l113-127q12-14 12-27t-10-23.5-23.5-10.5-27.5 12l-127 113q-20 18-20.5 34.5z"/><glyph unicode="Ú" horiz-adv-x="1323" d="M20 1196.5q0 20.5 13.5 34.5t34.5 14h178q20 0 36.5-14t16.5-35v-807q0-139 104.5-226t270.5-87 271.5 87 105.5 226v760h-121q-20 0-33.5 13.5t-13.5 34 13 34.5 34 14h178q53 0 53-49v-807q0-188-142-298.5t-351-110.5-344.5 114.5-135.5 294.5v760h-120q-20 0-34 13.5t-14 34zm555 246.5q0 13 13 27l112 127q18 20 35 20.5t33-16 16-33-20-34.5l-127-113q-14-12-27.5-12t-24 10.5-10.5 23.5z"/><glyph unicode="Û" horiz-adv-x="1323" d="M20 1196.5q0 20.5 13.5 34.5t34.5 14h178q20 0 36.5-14t16.5-35v-807q0-139 104.5-226t270.5-87 271.5 87 105.5 226v760h-121q-20 0-33.5 13.5t-13.5 34 13.5 34.5 33.5 14h178q53 0 53-49v-807q0-188-142-298.5t-351-110.5-344.5 114.5-135.5 294.5v760h-120q-20 0-34 13.5t-14 34zm494 233q0 12.5 10 24.5l90 119q16 23 45 22.5t46-22.5l90-119q10-12 10-24.5t-11.5-22.5-23.5-10l-31 16-80 84-79-84q-16-16-31-16l-23 8q-12 12-12 24.5z"/><glyph unicode="Ü" horiz-adv-x="1323" d="M20 1196.5q0 20.5 13.5 34.5t34.5 14h178q20 0 36.5-14t16.5-35v-807q0-139 104.5-226t270.5-87 271.5 87 105.5 226v760h-121q-20 0-33.5 13.5t-13.5 34 13 34.5 34 14h178q53 0 53-49v-807q0-188-142-298.5t-351-110.5-344.5 114.5-135.5 294.5v760h-120q-20 0-34 13.5t-14 34zm429 296.5q0 63 63 63 29 0 46-18t17-45-17-44-47-17-46 17-16 44zm276 0q0 63 63 63 29 0 46.5-18t17.5-45-17.5-44-47-17-46 17-16.5 44z"/><glyph unicode="Ý" horiz-adv-x="1150" d="M0 1211.5q0 9.5 2 17.5 12 39 61 39 21 0 35-25l477-698 478 700q16 23 34.5 23t40-12.5 21.5-45.5q0-10-6-20l-512-735v-428q0-20-16.5-33.5t-39-13.5-39 13-16.5 34v424l-514 741q-6 10-6 19.5zm487 231.5q0 13 13 27l112 127q18 20 35 20.5t33-16 16-33-20-34.5l-127-113q-14-12-27.5-12t-24 10.5-10.5 23.5z"/><glyph unicode="Þ" horiz-adv-x="1222" d="M184 27v1192q0 20 16.5 33.5t39 13.5 39-13.5 16.5-33.5v-203h412q225 0 335.5-92.5t110.5-291-110.5-290.5-335.5-92h-412v-223q0-20-16.5-33.5t-39-13.5-39 13-16.5 34zm111 317h412q174 0 254.5 67.5t80.5 223.5-85 220.5-250 64.5h-412v-576z"/><glyph unicode="ß" horiz-adv-x="1122" d="M137 27v1173q0 168 86 262t243 94 271.5-81.5 114.5-227.5q0-78-54.5-142.5t-117.5-100.5q-174-94-174-175 0-96 190-174 78-33 157-73.5t134-114.5 55-176q0-147-88-229t-252-82q-76 0-164 25.5t-137 64.5q-18 16-18 32.5t13.5 34 30.5 17.5 46-18.5 101.5-40 123.5-21.5q113 0 173.5 57t60.5 147.5-55.5 146.5-134 92-156.5 72-133.5 96-55.5 139 54.5 138.5 119 93.5 118.5 85 54 106q0 100-87 158.5t-192.5 58.5-160.5-72.5-55-191.5v-1173q0-20-16.5-33.5t-39-13.5-39 13-16.5 34z"/><glyph unicode="à" d="M86 212q0 110 87 172t217 62 253-43v142q0 98-72 127-55 20-152 20t-179-33v-129q0-20-16.5-33.5t-39-13.5-39 13.5-16.5 33.5v156q0 27 27 41 100 59 266 59t248-54 82-187v-410q0-39 55-39h80q20 0 33.5-14t13.5-34.5-13.5-34-33.5-13.5h-90q-74 0-114 33t-40 92q0 10 2 22-109-168-315-167-115 0-179.5 61t-64.5 171zm111 2q0-67 38.5-103.5t106.5-36.5q188 0 301 205v38q-135 37-230.5 37t-155.5-36.5-60-103.5zm118.5 875.5q-.5 16.5 16 33t33 16.5 34.5-21l113-127q12-14 12-27.5t-10-23.5-23.5-10-27.5 12l-127 113q-20 18-20.5 34.5z"/><glyph unicode="á" d="M86 212q0 110 87 172t217 62 253-43v142q0 98-72 127-35 12-66.5 16t-107 4-157.5-33v-129q0-20-16.5-33.5t-39-13.5-39 13.5-16.5 33.5v156q0 27 27 41 100 59 266 59t248-54 82-187v-410q0-39 55-39h80q20 0 33.5-14t13.5-34.5-13.5-34-33.5-13.5h-90q-74 0-114 33t-40 92q0 10 2 22-109-168-315-167-115 0-179.5 61t-64.5 171zm111 2q0-67 38.5-103.5t106.5-36.5q188 0 301 205v38q-135 37-230.5 37t-155.5-36.5-60-103.5zm153 749.5q0 13.5 12 27.5l113 127q18 20 34.5 20.5t33-16 16.5-33-20-34.5l-127-113q-14-12-27.5-12t-24 10-10.5 23.5z"/><glyph unicode="â" d="M86 212q0 110 87 172t217 62 253-43v142q0 98-72 127-55 20-152 20t-179-33v-129q0-20-16.5-33.5t-39-13.5-39 13.5-16.5 33.5v156q0 27 27 41 100 59 266 59t248-54 82-187v-410q0-39 55-39h80q20 0 33.5-14t13.5-34.5-13.5-34-33.5-13.5h-90q-74 0-114 33t-40 92q0 10 2 22-109-168-315-167-115 0-179.5 61t-64.5 171zm111 2q0-67 38.5-103.5t106.5-36.5q188 0 301 205v38q-135 37-230.5 37t-155.5-36.5-60-103.5zm86 736.5q0 12.5 10 24.5l90 119q16 23 45 22.5t45-22.5l90-119q10-12 10-24.5t-11-22.5-23-10l-31 16-80 84-80-84q-16-16-31-16l-22 8q-12 12-12 24.5z"/><glyph unicode="ã" d="M86 212q0 110 87 172t217 62 253-43v142q0 98-72 127-55 20-152 20t-179-33v-129q0-20-16.5-33.5t-39-13.5-39 13.5-16.5 33.5v156q0 27 27 41 100 59 266 59t248-54 82-187v-410q0-39 55-39h80q20 0 33.5-14t13.5-34.5-13.5-34-33.5-13.5h-90q-74 0-114 33t-40 92q0 10 2 22-109-168-315-167-115 0-179.5 61t-64.5 171zm80 771q0 53 37 91t100.5 38 140-45 101.5-45q41 0 41 45t47 45 47-52-37-89-99.5-37-136 44-104.5 44q-43 0-43-46t-47-46-47 53zm31-769q0-67 38.5-103.5t106.5-36.5q188 0 301 205v38q-135 37-230.5 37t-155.5-36.5-60-103.5z"/><glyph unicode="ä" d="M86 212q0 110 87 172t217 62 253-43v142q0 98-72 127-35 12-66.5 16t-107 4-157.5-33v-129q0-20-16.5-33.5t-39-13.5-39 13.5-16.5 33.5v156q0 27 27 41 100 59 266 59t248-54 82-187v-410q0-39 55-39h80q20 0 33.5-14t13.5-34.5-13.5-34-33.5-13.5h-90q-74 0-114 33t-40 92q0 10 2 22-109-168-315-167-115 0-179.5 61t-64.5 171zm111 2q0-67 38.5-103.5t106.5-36.5q188 0 301 205v38q-135 37-230.5 37t-155.5-36.5-60-103.5zm36 800q0 63 64 63 29 0 46-18.5t17-45-17-44-47-17.5-46.5 17.5-16.5 44.5zm277 0q0 63 63 63 29 0 46.5-18.5t17.5-45-17.5-44-47-17.5-46 17.5-16.5 44.5z"/><glyph unicode="å" d="M86 212q0 110 87 172t217 62 253-43v142q0 98-72 127-35 12-66.5 16t-107 4-157.5-33v-129q0-20-16.5-33.5t-39-13.5-39 13.5-16.5 33.5v156q0 27 27 41 100 59 266 59t248-54 82-187v-410q0-39 55-39h80q20 0 33.5-14t13.5-34.5-13.5-34-33.5-13.5h-90q-74 0-114 33t-40 92q0 10 2 22-109-168-315-167-115 0-179.5 61t-64.5 171zm111 2q0-67 38.5-103.5t106.5-36.5q188 0 301 205v38q-135 37-230.5 37t-155.5-36.5-60-103.5zm92 812q0 59 40 97t103.5 38 104.5-38 41-97-41-97-104.5-38-103.5 38-40 97zm78 0q0-33 19.5-50.5t46-17.5 47 17.5 20.5 50.5-20.5 50.5-47 17.5-46-17.5-19.5-50.5z"/><glyph unicode="æ" horiz-adv-x="1454" d="M86 213q0 111 73.5 172t190.5 61h293v99q0 98-72 127-55 20-155.5 20t-175.5-30v-119q0-20-16.5-33.5t-39-13.5-39 13-16.5 34v145q0 27 27 41 98 57 248.5 57t224-28.5 102.5-110.5q106 139 287.5 139t266.5-104 85-279q0-47-53-47l-567-2q8-127 82.5-203.5t193.5-76.5q160 0 240 123 14 25 32.5 24.5t37-9.5 25.5-28.5-3-36.5q-104-168-340-167.5t-336 202.5q-150-203-352-202-115 0-179.5 61t-64.5 172zm111-6q0-59 38.5-96t106.5-37q188 0 301 205v75h-268q-178 0-178-147zm557 239h508q-7 111-65 178.5t-167.5 67.5-183.5-68.5-92-177.5z"/><glyph unicode="ç" horiz-adv-x="882" d="M86 393q0 166 109.5 279.5t272.5 113.5 284-75q25-16 24-39v-172q0-20-16.5-33.5t-39-13.5-38.5 13-16 34v145q-82 47-197 47t-194.5-86-79.5-222 76.5-223 197.5-87q160 0 240 123 16 25 33.5 24.5t35.5-8.5q29-12 29-33.5t-6-32.5q-86-137-256-161l-27-64q66-8 103.5-48t37.5-101.5-57-104.5-138-43-143.5 30-62.5 68.5 41 38.5q6 0 56.5-23.5t94.5-23.5 71.5 17.5 27.5 48.5q0 72-119 72-45 0-45 36 0 16 12 37l27 56q-156 16-247 130.5t-91 280.5z"/><glyph unicode="è" horiz-adv-x="901" d="M86 387q0 176 106.5 287.5t280.5 111.5 259-104 85-279q0-47-53-47l-567-2q8-127 82.5-203.5t193.5-76.5q160 0 240 123 14 25 32.5 24.5t37-9.5 25.5-28.5-3-36.5q-104-168-332-167-180 0-283.5 115.5t-103.5 291.5zm115 64h508q-7 110-65 175.5t-167.5 65.5-183.5-66.5-92-174.5zm121 638.5q0 16.5 16 33t32.5 16.5 35.5-21l112-127q12-14 12-27.5t-10-23.5-23.5-10-27.5 12l-127 113q-20 18-20 34.5z"/><glyph unicode="é" horiz-adv-x="901" d="M86 387q0 176 106.5 287.5t280.5 111.5 259-104 85-279q0-47-53-47l-567-2q8-127 82.5-203.5t193.5-76.5q160 0 240 123 14 25 32.5 24.5t37-9.5 25.5-28.5-3-36.5q-104-168-332-167-180 0-283.5 115.5t-103.5 291.5zm115 64h508q-6 111-64.5 176t-168 65-183.5-66.5-92-174.5zm176 512.5q0 13.5 12 27.5l113 127q18 20 34.5 20.5t33-16 16.5-33-21-34.5l-127-113q-14-12-27.5-12t-23.5 10-10 23.5z"/><glyph unicode="ê" horiz-adv-x="901" d="M86 387q0 176 106.5 287.5t280.5 111.5 259-104 85-279q0-47-53-47l-567-2q8-127 82.5-203.5t193.5-76.5q160 0 240 123 14 25 32.5 24.5t37-9.5 25.5-28.5-3-36.5q-104-168-332-167-180 0-283.5 115.5t-103.5 291.5zm115 64h508q-7 110-65 175.5t-167.5 65.5-183.5-66.5-92-174.5zm121 499.5q0 12.5 10 24.5l90 119q16 23 45 22.5t45-22.5l90-119q10-12 10-24.5t-11-22.5-23-10l-31 16-80 84-80-84q-16-16-31-16l-22 8q-12 12-12 24.5z"/><glyph unicode="ë" horiz-adv-x="901" d="M86 387q0 176 106.5 287.5t280.5 111.5 259-104 85-279q0-47-53-47l-567-2q8-127 82.5-203.5t193.5-76.5q160 0 240 123 14 25 32.5 24.5t37-9.5 25.5-28.5-3-36.5q-104-168-332-167-180 0-283.5 115.5t-103.5 291.5zm115 64h508q-6 111-64.5 176t-168 65-183.5-66.5-92-174.5zm57 563q0 63 64 63 29 0 46-18.5t17-45-17.5-44-47-17.5-46 17.5-16.5 44.5zm277 0q0 63 63 63 29 0 46.5-18.5t17.5-45-17.5-44-47.5-17.5-46 17.5-16 44.5z"/><glyph unicode="ì" horiz-adv-x="442" d="M12 716.5q0 20.5 13.5 35t33.5 14.5h199q47 0 47-47v-692q0-20-16.5-33.5t-39-13.5-38.5 13-16 34v643h-136q-20 0-33.5 13t-13.5 33.5zm88.5 373q-.5 16.5 16 33t33 16.5 34.5-21l113-127q12-14 12-27.5t-10-23.5-23.5-10-27.5 12l-127 113q-20 18-20.5 34.5z"/><glyph unicode="í" horiz-adv-x="442" d="M12 716.5q0 20.5 13.5 35t33.5 14.5h199q47 0 47-47v-692q0-20-16.5-33.5t-39-13.5-38.5 13-16 34v643h-136q-20 0-33.5 13t-13.5 33.5zm113 247q0 13.5 12 27.5l113 127q18 20 34.5 20.5t33-16 16.5-33-21-34.5l-127-113q-14-12-27.5-12t-23.5 10-10 23.5z"/><glyph unicode="î" horiz-adv-x="442" d="M12 716.5q0 20.5 13.5 35t33.5 14.5h199q47 0 47-47v-692q0-20-16.5-33.5t-39-13.5-38.5 13-16 34v643h-136q-20 0-33.5 13t-13.5 33.5zm84.5 234q-.5 12.5 9.5 24.5l91 119q16 23 44.5 22.5t45.5-22.5l90-119q10-12 10-24.5t-11-22.5-24-10l-30 16-80 84-80-84q-16-16-31-16l-22 8q-12 12-12.5 24.5z"/><glyph unicode="ï" horiz-adv-x="442" d="M12 716.5q0 20.5 13.5 35t33.5 14.5h199q47 0 47-47v-692q0-20-16.5-33.5t-39-13.5-38.5 13-16 34v643h-136q-20 0-33.5 13t-13.5 33.5zm27 297.5q0 63 63 63 29 0 46.5-18.5t17.5-45-17.5-44-47-17.5-46 17.5-16.5 44.5zm246 0q0 63 63 63 29 0 46.5-18.5t17.5-45-17.5-44-47.5-17.5-46 17.5-16 44.5z"/><glyph unicode="ð" horiz-adv-x="976" d="M86 384q0 175 96.5 288.5t275.5 113.5 308-149q-8 397-160 616l-108-88q-16-12-36-10t-32 18.5-12 34 18 33.5l107 86q-109 109-271 137-34 6-34 41 0 53 45 54 6 0 14-3 199-33 330-161l114 94q14 12 29 12l37-22q14-18 14-35t-18-31l-113-92q188-260 189-793 0-322-131-444-113-104-276-104t-274.5 114.5-111.5 289.5zm111-1q0-137 80.5-223t213-86 204 113.5 73.5 326.5q-45 64-125 121t-189.5 57-183-86-73.5-223z"/><glyph unicode="ñ" horiz-adv-x="1042" d="M12 716.5q0 20.5 13.5 35t33.5 14.5h111q127 0 127-139 123 160 309 159 111 0 181.5-56t70.5-165v-430q0-39 55-39h80q20 0 33.5-14t13.5-34.5-13-34-34-13.5h-80q-166 0-165 133v432q0 61-38 94t-106 33q-188 0-299-196v-469q0-20-16.5-33.5t-39-13.5-38.5 13-16 34v604q0 39-39 39h-97q-20 0-33.5 13t-13.5 33.5zm250 266.5q0 53 37 91t100.5 38 140-45 101.5-45q41 0 41 45t47 45 47-52-37-89-99-37-136 44-105 44q-43 0-43-46t-47-46-47 53z"/><glyph unicode="ò" horiz-adv-x="952" d="M84 383q0 176 110.5 289.5t282.5 113.5 281.5-113.5 109.5-290.5-109.5-289.5-282.5-112.5-282.5 113.5-109.5 289.5zm111-1q0-136 78.5-222t203.5-86 204 86 79 222-79 223-204 87-203.5-87-78.5-223zm131 707.5q0 16.5 16 33t32.5 16.5 35.5-21l112-127q12-14 12.5-27.5t-10-23.5-24-10-27.5 12l-127 113q-20 18-20 34.5z"/><glyph unicode="ó" horiz-adv-x="952" d="M84 383q0 176 110.5 289.5t282.5 113.5 281.5-113.5 109.5-290.5-109.5-289.5-282.5-112.5-282.5 113.5-109.5 289.5zm111-1q0-136 78.5-222t203.5-86 204 86 79 222-79 223-204 87-203.5-87-78.5-223zm190 581.5q0 13.5 12 27.5l113 127q18 20 34.5 20.5t33-16 16.5-33-21-34.5l-127-113q-14-12-27-12t-23.5 10-10.5 23.5z"/><glyph unicode="ô" horiz-adv-x="952" d="M84 383q0 176 110.5 289.5t282.5 113.5 281.5-113.5 109.5-290.5-109.5-289.5-282.5-112.5-282.5 113.5-109.5 289.5zm111-1q0-136 78.5-222t203.5-86 204 86 79 222-79 223-204 87-203.5-87-78.5-223zm135 568.5q0 12.5 10 24.5l90 119q16 23 45 22.5t45-22.5l90-119q10-12 10.5-24.5t-11-22.5-23.5-10l-31 16-80 84-80-84q-16-16-30-16l-23 8q-12 12-12 24.5z"/><glyph unicode="õ" horiz-adv-x="952" d="M84 383q0 176 110.5 289.5t282.5 113.5 281.5-113.5 109.5-290.5-109.5-289.5-282.5-112.5-282.5 113.5-109.5 289.5zm111-1q0-136 78.5-222t203.5-86 204 86 79 222-79 223-204 87-203.5-87-78.5-223zm24 601q0 53 37 91t100.5 38 140-45 101.5-45q41 0 41 45t47 45 47-52-37-89-99-37-136 44-105 44q-43 0-43-46t-47-46-47 53z"/><glyph unicode="ö" horiz-adv-x="952" d="M84 383q0 176 110.5 289.5t282.5 113.5 281.5-113.5 109.5-290.5-109.5-289.5-282.5-112.5-282.5 113.5-109.5 289.5zm111-1q0-136 78.5-222t203.5-86 204 86 79 222-79 223-204 87-203.5-87-78.5-223zm79 632q0 63 64 63 29 0 46-18.5t17-45-17-44-47-17.5-46.5 17.5-16.5 44.5zm277 0q0 63 63 63 29 0 46.5-18.5t17.5-45-17.5-44-47-17.5-46 17.5-16.5 44.5z"/><glyph unicode="÷" horiz-adv-x="806" d="M117 380.5q0 20.5 13 35t34 14.5h477q20 0 33.5-14.5t13.5-35-13.5-33.5-33.5-13h-477q-20 0-33.5 13t-13.5 33.5zm211-227q0 30.5 19.5 52t54 21.5 55-21.5 20.5-52-20.5-52-55-21.5-54 21.5-19.5 52zm0 457q0 30.5 19.5 52t54 21.5 55-21.5 20.5-52-20.5-52-55-21.5-54 21.5-19.5 52z"/><glyph unicode="ø" horiz-adv-x="952" d="M84 376q0 183 110.5 296.5t282.5 113.5q104 0 191-45l61 88q12 20 32.5 20.5t39-14 18.5-31-12-30.5l-62-88q123-117 123-299t-109.5-294.5-281.5-112.5q-104 0-194 47l-62-88q-14-23-31.5-23t-33.5 10q-25 16-25 33.5t12 34.5l62 88q-121 111-121 294zm111 10q0-132 69-218l346 491q-61 33-133 33-125 0-203.5-87t-78.5-219zm145-277q59-35 137-35 125 0 204 86t79 219-76 221z"/><glyph unicode="ù" horiz-adv-x="1042" d="M2 718.5q0 20.5 13.5 34t33.5 13.5h80q166 0 166-133v-432q0-61 38-94t105-33q188 0 299 196v469q0 20 16.5 33.5t39 13.5 39-13 16.5-34v-604q0-39 39-39h96q20 0 33.5-13t13.5-33.5-13-35-34-14.5h-111q-127 0-127 139-123-160-309-159-111 0-181.5 56t-70.5 165v430q0 39-55 39h-80q-20 0-33.5 14t-13.5 34.5zm348.5 371q-.5 16.5 16 33t33 16.5 34.5-21l113-127q12-14 12-27.5t-10-23.5-23.5-10-27.5 12l-127 113q-20 18-20.5 34.5z"/><glyph unicode="ú" horiz-adv-x="1042" d="M2 718.5q0 20.5 13.5 34t33.5 13.5h80q166 0 166-133v-432q0-61 38-94t105-33q188 0 299 196v469q0 20 16.5 33.5t39 13.5 39-13 16.5-34v-604q0-39 39-39h96q20 0 33.5-13t13.5-33.5-13-35-34-14.5h-111q-127 0-127 139-123-160-309-159-111 0-181.5 56t-70.5 165v430q0 39-55 39h-80q-20 0-33.5 14t-13.5 34.5zm434 245q0 13.5 13 27.5l112 127q18 20 34.5 20.5t33-16 16.5-33-20-34.5l-127-113q-14-12-27.5-12t-24 10-10.5 23.5z"/><glyph unicode="û" horiz-adv-x="1042" d="M2 718.5q0 20.5 13.5 34t33.5 13.5h80q166 0 166-133v-432q0-61 38-94t105-33q188 0 299 196v469q0 20 16.5 33.5t39 13.5 39-13 16.5-34v-604q0-39 39-39h96q20 0 33.5-13t13.5-33.5-13-35-34-14.5h-111q-127 0-127 139-123-160-309-159-111 0-181.5 56t-70.5 165v430q0 39-55 39h-80q-20 0-33.5 14t-13.5 34.5zm342 232q0 12.5 10 24.5l90 119q16 23 45 22.5t46-22.5l90-119q10-12 10-24.5t-11.5-22.5-23.5-10l-31 16-80 84-79-84q-16-16-31-16l-23 8q-12 12-12 24.5z"/><glyph unicode="ü" horiz-adv-x="1042" d="M2 718.5q0 20.5 13.5 34t33.5 13.5h80q166 0 166-133v-432q0-61 38-94t105-33q188 0 299 196v469q0 20 16.5 33.5t39 13.5 39-13 16.5-34v-604q0-39 39-39h96q20 0 33.5-13t13.5-33.5-13-35-34-14.5h-111q-127 0-127 139-123-160-309-159-111 0-181.5 56t-70.5 165v430q0 39-55 39h-80q-20 0-33.5 14t-13.5 34.5zm270 295.5q0 63 64 63 29 0 46-18.5t17-45-17-44-47-17.5-46.5 17.5-16.5 44.5zm277 0q0 63 63 63 29 0 46.5-18.5t17.5-45-17.5-44-47-17.5-46 17.5-16.5 44.5z"/><glyph unicode="ý" horiz-adv-x="884" d="M-63.5-411q6.5 42 40.5 42l66-6q51 0 90 19 78 37 182 252l70 143-334 676q-8 18 1 36.5t28.5 27.5 39 9 34.5-30l288-606 289 606q14 31 32.5 30.5t35.5-8.5q37-16 37-47 0-10-5-18l-417-860q-39-82-62.5-122t-69.5-96.5-104.5-81-119-24.5-83.5 6q-45 10-38.5 52zm434.5 1374.5q0 13.5 12 27.5l113 127q18 20 34.5 20.5t33-16 16.5-33-21-34.5l-127-113q-14-12-27.5-12t-23.5 10-10 23.5z"/><glyph unicode="þ" horiz-adv-x="974" d="M-45 1486.5q0 20.5 13.5 35t33.5 14.5h191q20 0 37.5-14.5t17.5-34.5v-856q104 156 278 155.5t267.5-111 93.5-290.5-96.5-292.5-256-112.5-286.5 116v-518q0-20-16.5-33.5t-39-13.5-39 13.5-16.5 33.5v1862h-135q-20 0-33.5 13t-13.5 33.5zm293-1289.5q135-123 263-123t197.5 86 69.5 227-68.5 223-187.5 82q-168 0-274-190v-305z"/><glyph unicode="ÿ" horiz-adv-x="884" d="M-63.5-411q6.5 42 40.5 42l66-6q51 0 90 19 78 37 182 252l70 143-334 676q-8 18 1 36.5t28.5 27.5 39 9 34.5-30l288-606 289 606q14 31 32.5 30.5t35.5-8.5q37-16 37-47 0-10-5-18l-417-860q-39-82-62.5-122t-69.5-96.5-104.5-81-119-24.5-83.5 6q-45 10-38.5 52zm305.5 1425q0 63 63 63 29 0 46.5-18.5t17.5-45-17.5-44-47.5-17.5-46 17.5-16 44.5zm276 0q0 63 64 63 29 0 46-18.5t17-45-17.5-44-47-17.5-46 17.5-16.5 44.5z"/><glyph unicode="Œ" horiz-adv-x="1923" d="M96 620.5q0 286.5 169 455.5t450 169h1071q53 0 53-49v-168q0-20-16.5-33.5t-39-13.5-38.5 13.5-16 33.5v121h-672v-475h573v76q0 20 15.5 33.5t38 13.5 38-13.5 15.5-33.5v-250q0-20-15.5-33.5t-38-13.5-38 13-15.5 34v78h-573v-482h727q25 0 40-13t15-33.5-16.5-35-38.5-14.5h-1069q-287 0-453 167t-166 453.5zm113-1q0-246.5 133-385t373-138.5h231v1053h-231q-233 0-369.5-141.5t-136.5-388z"/><glyph unicode="œ" horiz-adv-x="1421" d="M86 385q0 176 109.5 288.5t267.5 112.5 270-88q104 88 269 88t250-104 85-279q0-47-47-47l-575-2q10-127 83.5-203.5t192.5-76.5q160 0 240 123 14 25 32.5 24.5t37-9.5 25.5-28.5-3-36.5q-105-167-332-167-160 0-258 88-100-88-264-88t-273.5 114.5-109.5 290.5zm109-1q0-136 79.5-223t196.5-87 199 71q-66 107-66 240t64 236q-78 72-196 71.5t-197.5-86.5-79.5-222zm524 67h508q-6 110-64.5 175.5t-169 65.5-183.5-66.5-91-174.5z"/><glyph unicode="Ÿ" horiz-adv-x="1150" d="M0 1211.5q0 9.5 2 17.5 12 39 61 39 21 0 35-25l477-698 478 700q16 23 34.5 23t40-12.5 21.5-45.5q0-10-6-20l-512-735v-428q0-20-16.5-33.5t-39-13.5-39 13-16.5 34v424l-514 741q-6 10-6 19.5zm375 281.5q0 63 63 63 29 0 46.5-18t17.5-45-17.5-44-47-17-46 17-16.5 44zm276 0q0 63 64 63 29 0 46-18t17-45-17.5-44-47-17-46 17-16.5 44z"/><glyph unicode="ˆ" horiz-adv-x="413" d="M61.5 950.5q-.5 12.5 10.5 24.5l90 119q16 23 45 22.5t45-22.5l90-119q10-12 10-24.5t-11-22.5-24-10l-30 16-80 84-80-84q-16-16-31-16l-22 8q-12 12-12.5 24.5z"/><glyph unicode="˜" horiz-adv-x="677" d="M82 983q0 53 37 91t100.5 38 140-45 101.5-45q41 0 41 45t47 45 47-52-37-89-99.5-37-136 44-104.5 44q-43 0-43-46t-47-46-47 53z"/><glyph horiz-adv-x="819"/><glyph horiz-adv-x="1638"/><glyph horiz-adv-x="819"/><glyph horiz-adv-x="1638"/><glyph horiz-adv-x="546"/><glyph horiz-adv-x="409"/><glyph horiz-adv-x="273"/><glyph horiz-adv-x="273"/><glyph horiz-adv-x="204"/><glyph horiz-adv-x="327"/><glyph horiz-adv-x="91"/><glyph unicode="‐" horiz-adv-x="817" d="M123 448.5q0 20.5 13.5 35t33.5 14.5h477q20 0 33.5-14.5t13.5-35-13.5-34-33.5-13.5h-477q-20 0-33.5 13.5t-13.5 34z"/><glyph unicode="‑" horiz-adv-x="817" d="M123 448.5q0 20.5 13.5 35t33.5 14.5h477q20 0 33.5-14.5t13.5-35-13.5-34-33.5-13.5h-477q-20 0-33.5 13.5t-13.5 34z"/><glyph unicode="‒" horiz-adv-x="817" d="M123 448.5q0 20.5 13.5 35t33.5 14.5h477q20 0 33.5-14.5t13.5-35-13.5-34-33.5-13.5h-477q-20 0-33.5 13.5t-13.5 34z"/><glyph unicode="–" horiz-adv-x="1046" d="M123 448.5q0 20.5 13.5 35t33.5 14.5h707q20 0 33.5-14.5t13.5-35-13.5-34-33.5-13.5h-707q-20 0-33.5 13.5t-13.5 34z"/><glyph unicode="—" horiz-adv-x="1529" d="M123 448.5q0 20.5 13.5 35t33.5 14.5h1190q20 0 33.5-14.5t13.5-35-13.5-34-33.5-13.5h-1190q-20 0-33.5 13.5t-13.5 34z"/><glyph unicode="‘" horiz-adv-x="354" d="M96 1358q0 76 49.5 137t92.5 61q23 0 22-18 0-12-14-25-39-31-51-86 51-12 51-69 0-31-19.5-52.5t-54.5-21.5-55.5 21.5-20.5 52.5z"/><glyph unicode="’" horiz-adv-x="358" d="M106 1303q0 12 15 24 39 31 51 86-51 13-51 70 0 31 19.5 52t54 21 55-21.5 20.5-51.5q0-76-49-137.5t-92-61.5q-23 0-23 19z"/><glyph unicode="‚" horiz-adv-x="405" d="M115-127q0 12 14 25 39 31 51 86-51 12-51 69 0 31 19.5 52.5t54.5 21.5 55.5-21.5 20.5-52.5q0-76-49.5-137t-92.5-61q-23 0-22 18z"/><glyph unicode="“" horiz-adv-x="583" d="M96 1358q0 76 49.5 137t92.5 61q23 0 22-18 0-12-14-25-39-31-51-86 51-12 51-69 0-31-19.5-52.5t-54.5-21.5-55.5 21.5-20.5 52.5zm230 0q0 76 49 137t92 61q23 0 22-18 0-12-14-25-39-31-51-86 51-12 51-69 0-31-19.5-52.5t-54-21.5-55 21.5-20.5 52.5z"/><glyph unicode="”" horiz-adv-x="587" d="M106 1303q0 12 15 24 39 31 51 86-51 13-51 70 0 31 19.5 52t54 21 55-21.5 20.5-51.5q0-76-49-137.5t-92-61.5q-23 0-23 19zm230 0q0 12 14 24 39 31 51 86-51 13-51 70 0 31 19.5 52t54.5 21 55.5-21.5 20.5-51.5q0-76-49.5-137.5t-92.5-61.5q-23 0-22 19z"/><glyph unicode="„" horiz-adv-x="634" d="M115-127q0 12 14 25 39 31 51 86-51 12-51 69 0 31 19.5 52.5t54.5 21.5 55.5-21.5 20.5-52.5q0-76-49.5-137t-92.5-61q-23 0-22 18zm229 0q0 12 14 25 39 31 52 86-52 12-52 69 0 31 19.5 52.5t54.5 21.5 55.5-21.5 20.5-52.5q0-76-49-137t-92-61q-23 0-23 18z"/><glyph unicode="•" horiz-adv-x="616" d="M172 708.5q0 59.5 39 97.5t96.5 38 97-38 39.5-97.5-39.5-95-97-35.5-96.5 35.5-39 95z"/><glyph unicode="…" horiz-adv-x="825" d="M123 53.5q0 30.5 19.5 52t54 21.5 55-21.5 20.5-52-20.5-52-55-21.5-54 21.5-19.5 52zm215 0q0 30.5 19.5 52t54 21.5 55-21.5 20.5-52-20.5-52-55-21.5-54 21.5-19.5 52zm215 0q0 30.5 19.5 52t54.5 21.5 55-21.5 20-52-20-52-55-21.5-54.5 21.5-19.5 52z"/><glyph horiz-adv-x="327"/><glyph unicode="‹" horiz-adv-x="694" d="M80 393.5q0 22.5 26 40.5l406 293q12 10 22.5 10t23.5-1 25.5-18.5 12.5-35.5-23-35l-360-254 360-252q23-16 23-34.5t-12-34.5q-14-20-37-20.5t-35 9.5l-406 291q-26 19-26 41.5z"/><glyph unicode="›" horiz-adv-x="692" d="M96 106.5q0 18.5 23 34.5l360 252-360 254q-23 16-23 34.5t13 35.5q14 20 36.5 20t34.5-10l406-293q27-18 26.5-40.5t-26.5-41.5l-406-291q-12-10-22.5-10t-23.5 1-25.5 18.5-12.5 36z"/><glyph horiz-adv-x="409"/><glyph unicode="€" horiz-adv-x="876" d="M80 479.5q0 20.5 13 34.5t34 14h55q-4 49-4 91.5t4 80.5h-55q-20 0-33.5 13.5t-13.5 34 13 35 34 14.5h70q39 213 171 341t349 128q20 0 33.5-13.5t13.5-34-13.5-34-33.5-13.5q-174 0-276.5-99t-135.5-275h381q20 0 33.5-14.5t13.5-35-13-34-34-13.5h-393q-4-53-4-94t4-78h393q20 0 33.5-14t13.5-34.5-13-34-34-13.5h-379q37-164 140.5-261t269.5-97q20 0 33.5-13.5t13.5-34-13.5-33.5-33.5-13q-221 0-352.5 120.5t-169.5 331.5h-68q-20 0-33.5 13.5t-13.5 34z"/><glyph unicode="™" horiz-adv-x="1550" d="M141 1183.5q0 20.5 13.5 35t33.5 14.5h76q33 0 53-29l183-252 186 256q18 25 45 25h80q20 0 33.5-14.5t13.5-35-13.5-33.5-33.5-13h-23v-389h23q20 0 33.5-14.5t13.5-35-13.5-34-33.5-13.5h-33q-41 0-64.5 13.5t-28.5 28-5 36.5v293l-133-182q-18-29-45-29t-49 31l-131 182v-328q0-20-16.5-33.5t-39-13.5-39 13.5-16.5 33.5v441h-23q-20 0-33.5 13t-13.5 33.5zm774-69.5v74q0 18 13.5 31.5t36.5 13.5h458q50 0 50-43v-76q0-20-15.5-33.5t-38-13.5-37 13.5-14.5 33.5v23h-117v-441q0-20-16-33.5t-38.5-13.5-39 13.5-16.5 33.5v441h-121v-23q0-20-15.5-33.5t-38-13.5-37 13.5-14.5 33.5z"/><glyph unicode="◼" horiz-adv-x="788" d="M0 0v788h788v-788h-788z"/><glyph unicode="ﬁ" horiz-adv-x="1073" d="M-23-424q0 37 48 49 106 33 147 122t41 241v682h-125q-20 0-33.5 13t-13.5 33.5 13.5 35 33.5 14.5h125v463q0 178 96.5 252.5t284.5 74.5 313-67q25-14 25-37v-350q0-20-16.5-33.5t-39-13.5-39 13-16.5 34v328q-84 33-228 32.5t-207.5-54.5-63.5-181v-461h571q47 0 47-47v-692q0-20-16.5-33.5t-39-13.5-39 13-16.5 34v643h-507v-682q0-182-55.5-291t-207.5-160q-23-6-39-6t-29.5 12.5-13.5 32.5z"/><glyph unicode="ﬂ" horiz-adv-x="1144" d="M-23-424q0 37 48 49 106 33 147 122t41 241v682h-125q-20 0-33.5 13t-13.5 33.5 13.5 35 33.5 14.5h125v463q0 178 96.5 252.5t289 74.5 316.5-67q25-14 25-37v-1317q0-39 55-39h80q20 0 33.5-14t13.5-34.5-13-34-34-13.5h-80q-166 0-166 133v1297q-84 33-232 32.5t-211.5-54.5-63.5-181v-461h356q20 0 33.5-14.5t13.5-35-13.5-33.5-33.5-13h-356v-682q0-182-55.5-291t-207.5-160q-23-6-39-6t-29.5 12.5-13.5 32.5z"/></font>
</defs>
</svg>
